<svg width="102" height="71" viewBox="0 0 102 71" fill="none" xmlns="http://www.w3.org/2000/svg">
<g clip-path="url(#clip0_122_2)">
<path d="M18.9995 9.13596e-05C24.0266 5.72426e-05 28.8487 1.99225 32.4099 5.54031C35.9711 9.08838 37.981 13.9031 37.9995 18.9301C38.0209 22.0651 37.2661 25.1567 35.8025 27.9291C34.3389 30.7016 32.212 33.0689 29.6115 34.8198C27.0109 36.5707 24.0175 37.6509 20.8981 37.9641C17.7787 38.2773 14.6303 37.8138 11.7336 36.6148C8.83682 35.4158 6.28178 33.5186 4.29624 31.0925C2.31071 28.6663 0.956379 25.7865 0.354011 22.7098C-0.248357 19.6331 -0.0800425 16.4553 0.84394 13.4594C1.76792 10.4636 3.41887 7.74297 5.64957 5.5401C7.40432 3.77722 9.49129 2.37986 11.7897 1.42892C14.0881 0.477984 16.5522 -0.00766061 19.0396 9.13596e-05H18.9995ZM31.3095 6.62012C28.4586 3.7947 24.7166 2.04449 20.7205 1.66739C16.7244 1.29029 12.7211 2.3096 9.39194 4.55182C6.06276 6.79404 3.61341 10.1206 2.46076 13.9654C1.30812 17.8102 1.52339 21.9356 3.06995 25.6396C4.61652 29.3435 7.39882 32.3971 10.9433 34.2806C14.4878 36.1641 18.5755 36.7612 22.5106 35.9702C26.4457 35.1792 29.9852 33.049 32.5266 29.9422C35.068 26.8354 36.4543 22.944 36.4496 18.9301C36.448 16.6405 35.9929 14.3739 35.1107 12.261C34.2285 10.1482 32.9366 8.23103 31.3095 6.62012Z" fill="#169FDB"/>
<path d="M35.3396 10.9301H69.6696C69.8747 10.9354 70.0695 11.0212 70.2118 11.1691C70.354 11.3169 70.4323 11.5149 70.4296 11.7201V62.3001C70.4309 62.4003 70.4122 62.4997 70.3745 62.5925C70.3368 62.6853 70.2808 62.7697 70.21 62.8405C70.1391 62.9114 70.0548 62.9673 69.962 63.005C69.8692 63.0427 69.7698 63.0614 69.6696 63.0601H26.9496C26.8499 63.0615 26.7509 63.0427 26.6586 63.0049C26.5663 62.9671 26.4827 62.911 26.4126 62.84C26.3425 62.769 26.2876 62.6846 26.2509 62.5918C26.2143 62.499 26.1969 62.3998 26.1996 62.3001C26.115 60.7977 25.4567 59.3852 24.3606 58.3542C23.2645 57.3233 21.8143 56.7526 20.3096 56.7601C18.798 56.7536 17.3427 57.3336 16.2499 58.3779C15.157 59.4223 14.5117 60.8498 14.4496 62.3601C14.4349 62.554 14.3493 62.7356 14.2091 62.8703C14.0689 63.005 13.8839 63.0833 13.6896 63.0901H6.85959C6.75729 63.0941 6.65521 63.0775 6.55951 63.0411C6.46381 63.0047 6.37645 62.9494 6.30267 62.8784C6.22889 62.8074 6.17021 62.7223 6.13016 62.6281C6.0901 62.5338 6.0695 62.4325 6.06958 62.3301V31.7201C6.56958 32.1901 7.06959 32.6601 7.60959 33.0701V61.5501H12.9496C13.2024 59.7876 14.0823 58.1754 15.4278 57.0092C16.7732 55.843 18.4941 55.201 20.2746 55.201C22.0551 55.201 23.7759 55.843 25.1214 57.0092C26.4669 58.1754 27.3467 59.7876 27.5996 61.5501H68.8896V12.4701H36.0096C35.8197 11.9429 35.5959 11.4285 35.3396 10.9301Z" fill="#169FDB"/>
<path d="M69.6695 22.2301H83.8195C83.9409 22.2319 84.0604 22.2607 84.1694 22.3143C84.2783 22.3679 84.374 22.445 84.4495 22.5401L100.89 43.2301C100.993 43.3685 101.045 43.5377 101.04 43.7101V62.3201C101.044 62.4202 101.027 62.52 100.991 62.6134C100.955 62.7069 100.9 62.7919 100.83 62.8632C100.759 62.9345 100.675 62.9905 100.582 63.0278C100.489 63.0651 100.39 63.083 100.29 63.0801H93.4495C93.3498 63.0815 93.2508 63.0627 93.1586 63.0249C93.0663 62.9871 92.9826 62.931 92.9125 62.86C92.8425 62.789 92.7875 62.7046 92.7509 62.6118C92.7143 62.519 92.6968 62.4198 92.6995 62.3201C92.6297 60.8039 91.9762 59.3734 90.8759 58.328C89.7755 57.2825 88.3135 56.703 86.7957 56.7108C85.2779 56.7185 83.8219 57.3129 82.7323 58.3696C81.6427 59.4262 81.0039 60.8633 80.9495 62.3801C80.9349 62.574 80.8493 62.7557 80.709 62.8904C80.5688 63.0251 80.3838 63.1033 80.1895 63.1101H69.6695C69.5677 63.1142 69.4661 63.0975 69.371 63.061C69.2758 63.0245 69.1891 62.969 69.1161 62.8979C69.0431 62.8268 68.9853 62.7415 68.9464 62.6473C68.9074 62.5531 68.8881 62.452 68.8895 62.3501V22.9901C68.8908 22.8895 68.9121 22.7901 68.9521 22.6977C68.9922 22.6053 69.0502 22.5218 69.1227 22.452C69.1953 22.3822 69.281 22.3276 69.3749 22.2912C69.4687 22.2548 69.5689 22.2375 69.6695 22.2401V22.2301ZM83.4395 23.7401H70.4395V61.5401H79.5095C79.7331 59.8992 80.5133 58.3848 81.7195 57.2501C83.0989 55.952 84.9255 55.2357 86.8195 55.2501C88.6013 55.2462 90.3246 55.8853 91.673 57.0499C93.0214 58.2146 93.9043 59.8267 94.1595 61.5901H99.5395V43.9701L83.4395 23.7401Z" fill="#169FDB"/>
<path d="M36.5695 23.6901H63.0295C63.2338 23.6901 63.4296 23.7712 63.574 23.9156C63.7184 24.06 63.7996 24.2559 63.7996 24.4601C63.7996 24.6643 63.7184 24.8602 63.574 25.0046C63.4296 25.149 63.2338 25.2301 63.0295 25.2301H36.0295C36.2195 24.7301 36.3795 24.2301 36.5295 23.6901H36.5695Z" fill="#169FDB"/>
<path d="M6.80954 37.7701C6.60798 37.7701 6.41468 37.6901 6.27216 37.5475C6.12963 37.405 6.04956 37.2117 6.04956 37.0101C6.04956 36.8086 6.12963 36.6152 6.27216 36.4727C6.41468 36.3302 6.60798 36.2501 6.80954 36.2501H13.3896C17.032 37.4371 20.9571 37.4371 24.5995 36.2501H63.0295C63.2311 36.2501 63.4244 36.3302 63.567 36.4727C63.7095 36.6152 63.7896 36.8086 63.7896 37.0101C63.7896 37.2117 63.7095 37.405 63.567 37.5475C63.4244 37.6901 63.2311 37.7701 63.0295 37.7701H6.80954Z" fill="#169FDB"/>
<path d="M6.80947 50.3002C6.70682 50.3056 6.60415 50.29 6.5078 50.2541C6.41146 50.2182 6.32352 50.163 6.24944 50.0917C6.17536 50.0204 6.1167 49.9347 6.07714 49.8398C6.03758 49.7449 6.01797 49.6429 6.01949 49.5401C6.0273 49.3368 6.11427 49.1445 6.26186 49.0044C6.40946 48.8643 6.60597 48.7874 6.80947 48.7901H63.0294C63.1283 48.7888 63.2264 48.8073 63.318 48.8445C63.4096 48.8817 63.4929 48.9369 63.5628 49.0068C63.6327 49.0767 63.6879 49.1599 63.7251 49.2515C63.7623 49.3431 63.7808 49.4413 63.7794 49.5401C63.7851 49.6406 63.7697 49.7411 63.7341 49.8352C63.6986 49.9293 63.6437 50.015 63.5731 50.0866C63.5024 50.1582 63.4175 50.2142 63.3239 50.251C63.2303 50.2877 63.1299 50.3045 63.0294 50.3002H6.80947Z" fill="#169FDB"/>
<path d="M69.6696 44.5101C69.5698 44.5101 69.4709 44.4905 69.3787 44.4523C69.2865 44.4141 69.2027 44.3581 69.1321 44.2875C69.0616 44.217 69.0056 44.1332 68.9674 44.041C68.9292 43.9488 68.9095 43.8499 68.9095 43.7501C68.9095 43.6503 68.9292 43.5515 68.9674 43.4593C69.0056 43.3671 69.0616 43.2833 69.1321 43.2127C69.2027 43.1422 69.2865 43.0862 69.3787 43.048C69.4709 43.0098 69.5698 42.9901 69.6696 42.9901H100.29C100.491 42.9901 100.684 43.0702 100.827 43.2127C100.969 43.3553 101.05 43.5486 101.05 43.7501C101.05 43.9517 100.969 44.145 100.827 44.2875C100.684 44.4301 100.491 44.5101 100.29 44.5101H69.6696Z" fill="#169FDB"/>
<path d="M20.2596 55.2301C21.7249 55.2252 23.1588 55.6554 24.3794 56.4664C25.5999 57.2773 26.5523 58.4323 27.1157 59.7851C27.6791 61.1378 27.8281 62.6274 27.544 64.065C27.2598 65.5026 26.5553 66.8234 25.5196 67.8601L25.4496 67.9301C24.7667 68.6072 23.9565 69.1422 23.0656 69.5044C22.1748 69.8665 21.2211 70.0486 20.2596 70.0401C18.7967 70.0391 17.367 69.6045 16.151 68.7913C14.9351 67.9781 13.9874 66.8228 13.4277 65.4713C12.8681 64.1197 12.7216 62.6326 13.0067 61.1979C13.2918 59.7631 13.9957 58.445 15.0295 57.4101H15.0896C15.7668 56.7282 16.5723 56.1872 17.4596 55.8182C18.3469 55.4492 19.2985 55.2595 20.2596 55.2601V55.2301ZM24.4496 58.4801C23.3441 57.3809 21.8485 56.7639 20.2896 56.7639C18.7306 56.7639 17.235 57.3809 16.1296 58.4801C15.5864 59.0276 15.1567 59.6768 14.8649 60.3907C14.5732 61.1045 14.4253 61.869 14.4296 62.6401C14.4205 63.4105 14.5662 64.1748 14.8583 64.8877C15.1503 65.6006 15.5826 66.2475 16.1296 66.7901C16.6747 67.3392 17.3227 67.7754 18.0364 68.074C18.7502 68.3725 19.5159 68.5275 20.2896 68.5301C21.0525 68.5375 21.8094 68.3937 22.5165 68.1071C23.2237 67.8204 23.867 67.3966 24.4096 66.8601L24.4796 66.7901C25.5732 65.6863 26.1845 64.1939 26.1796 62.6401C26.1732 61.0856 25.5637 59.5942 24.4796 58.4801H24.4496Z" fill="#169FDB"/>
<path d="M86.8095 55.2301C88.2707 55.2347 89.698 55.6706 90.9124 56.4831C92.1268 57.2956 93.0743 58.4485 93.6361 59.7974C94.1978 61.1463 94.3488 62.631 94.0702 64.0653C93.7915 65.4996 93.0955 66.8198 92.0695 67.8601L92.0096 67.9301C90.6128 69.2955 88.7334 70.0541 86.7802 70.041C84.8269 70.0279 82.9579 69.2441 81.5796 67.8601C80.8923 67.1746 80.347 66.3602 79.975 65.4636C79.6029 64.567 79.4114 63.6058 79.4114 62.6351C79.4114 61.6644 79.6029 60.7032 79.975 59.8066C80.347 58.91 80.8923 58.0957 81.5796 57.4101C82.9622 56.0367 84.8307 55.2641 86.7795 55.2601L86.8095 55.2301ZM90.9695 58.4801C90.4273 57.928 89.7797 57.4903 89.0651 57.1931C88.3505 56.8959 87.5834 56.7453 86.8095 56.7501C85.2635 56.7548 83.7809 57.3651 82.6796 58.4501C82.1319 58.9958 81.6972 59.6441 81.4003 60.3579C81.1035 61.0717 80.9503 61.837 80.9496 62.6101C80.9455 63.3824 81.0965 64.1477 81.3937 64.8606C81.6909 65.5734 82.1281 66.2194 82.6796 66.7601C83.2247 67.3092 83.8727 67.7455 84.5865 68.044C85.3002 68.3426 86.0659 68.4975 86.8396 68.5001C88.38 68.5117 89.8619 67.911 90.9596 66.8301V66.7601C91.511 66.2194 91.9483 65.5734 92.2454 64.8606C92.5426 64.1477 92.6936 63.3824 92.6895 62.6101C92.6888 61.837 92.5357 61.0717 92.2388 60.3579C91.9419 59.6441 91.5072 58.9958 90.9596 58.4501L90.9695 58.4801Z" fill="#169FDB"/>
<path d="M72.4096 27.7201H82.4596C82.6594 27.7201 82.8512 27.7988 82.9934 27.9392C83.1357 28.0795 83.2169 28.2703 83.2196 28.4701V39.9701C83.2223 40.1753 83.144 40.3733 83.0017 40.5211C82.8595 40.669 82.6647 40.7549 82.4596 40.7601H72.4096C72.2062 40.7523 72.0139 40.6653 71.8738 40.5177C71.7337 40.3701 71.6568 40.1736 71.6596 39.9701V28.4701C71.6621 28.272 71.742 28.0827 71.8821 27.9426C72.0222 27.8025 72.2114 27.7227 72.4096 27.7201ZM81.7096 29.2301H73.1996V39.2301H81.7096V29.2301Z" fill="#169FDB"/>
<path d="M9 9V23.8684H23.5085V19.7432H11.0319V10.7334H28V9H9Z" fill="#169FDB"/>
<path d="M13.4497 17.2569H25.9681V26.2666H9V28H28V13.1308H13.4497V17.2569Z" fill="#169FDB"/>
</g>
<defs>
<clipPath id="clip0_122_2">
<rect width="102" height="71" fill="white"/>
</clipPath>
</defs>
</svg>
