<svg width="105" height="74" viewBox="0 0 105 74" fill="none" xmlns="http://www.w3.org/2000/svg">
<path d="M44.4718 19.3671C44.272 19.3644 44.0812 19.2832 43.9409 19.141C43.8005 18.9987 43.7218 18.8069 43.7218 18.6071C43.7244 18.4089 43.8043 18.2197 43.9443 18.0796C44.0844 17.9395 44.2737 17.8596 44.4718 17.8571H75.4118C75.6117 17.857 75.8035 17.9357 75.9457 18.0761C76.088 18.2165 76.1692 18.4072 76.1718 18.6071V65.9771C76.1692 66.1778 76.0883 66.3696 75.9464 66.5116C75.8044 66.6536 75.6126 66.7345 75.4118 66.7371H35.4118C35.3121 66.7385 35.2131 66.7197 35.1208 66.6818C35.0286 66.644 34.9449 66.5879 34.8748 66.5169C34.8048 66.4459 34.7498 66.3615 34.7132 66.2688C34.6766 66.176 34.6591 66.0768 34.6618 65.9771C34.5777 64.5807 33.9638 63.2691 32.9453 62.3101C31.9268 61.3511 30.5807 60.8171 29.1818 60.8171C27.7766 60.8257 26.4283 61.3729 25.4144 62.3458C24.4005 63.3188 23.7983 64.6435 23.7318 66.0471C23.7192 66.2408 23.6339 66.4226 23.493 66.5561C23.3521 66.6896 23.1659 66.765 22.9718 66.7671H16.5818C16.3811 66.7645 16.1893 66.6836 16.0473 66.5416C15.9053 66.3996 15.8244 66.2078 15.8218 66.0071V44.0871C15.8204 43.9873 15.8392 43.8884 15.8771 43.7961C15.9149 43.7038 15.971 43.6201 16.042 43.5501C16.113 43.48 16.1974 43.425 16.2901 43.3884C16.3829 43.3518 16.4821 43.3344 16.5818 43.3371C16.6807 43.3357 16.7788 43.3542 16.8704 43.3914C16.962 43.4286 17.0452 43.4838 17.1152 43.5537C17.1851 43.6236 17.2403 43.7069 17.2775 43.7985C17.3147 43.8901 17.3332 43.9882 17.3318 44.0871V65.1971H22.2818C22.5282 63.6687 23.2695 62.2634 24.3918 61.1971C25.3193 60.3333 26.464 59.7375 27.7036 59.4734C28.9432 59.2092 30.2313 59.2866 31.4304 59.6973C32.6294 60.1079 33.6945 60.8364 34.512 61.805C35.3294 62.7737 35.8686 63.946 36.0718 65.1971H74.6618V19.3671H44.4718Z" fill="#00AEEF"/>
<path d="M75.4118 28.407H88.6418C88.7687 28.4027 88.8943 28.4331 89.0053 28.4947C89.1163 28.5564 89.2084 28.647 89.2718 28.757L104.672 48.087C104.778 48.2244 104.834 48.3936 104.832 48.567V65.977C104.829 66.1778 104.748 66.3696 104.606 66.5116C104.464 66.6535 104.273 66.7344 104.072 66.737H97.6818C97.481 66.7344 97.2892 66.6535 97.1473 66.5116C97.0053 66.3696 96.9244 66.1778 96.9218 65.977C96.8643 64.9354 96.5095 63.932 95.8995 63.0857C95.2895 62.2393 94.4499 61.5855 93.4799 61.2015C92.5099 60.8175 91.4501 60.7194 90.4261 60.9189C89.4022 61.1184 88.4568 61.607 87.7018 62.327C86.6905 63.3112 86.084 64.6382 86.0018 66.047C85.9892 66.2407 85.9039 66.4225 85.763 66.556C85.6221 66.6895 85.4359 66.7649 85.2418 66.767H75.4118C75.212 66.7644 75.0212 66.6832 74.8809 66.5409C74.7405 66.3987 74.6618 66.2069 74.6618 66.007V29.157C74.6644 28.9589 74.7442 28.7696 74.8843 28.6295C75.0244 28.4895 75.2137 28.4096 75.4118 28.407ZM88.2918 29.947H76.1618V65.197H84.5718C84.7901 63.666 85.5238 62.255 86.6518 61.197C87.9521 59.9648 89.6754 59.2779 91.4668 59.2779C93.2582 59.2779 94.9815 59.9648 96.2818 61.197C97.3843 62.2742 98.1132 63.6758 98.3618 65.197H103.312V48.847L88.2918 29.947Z" fill="#00AEEF"/>
<path d="M69.2018 29.787H43.5618V31.297H69.2018V29.787Z" fill="#00AEEF"/>
<path d="M69.2018 41.537H33.7018V43.047H69.2018V41.537Z" fill="#00AEEF"/>
<path d="M69.2018 53.257H16.5718V54.797H69.2018V53.257Z" fill="#00AEEF"/>
<path d="M104.062 47.837H75.4018V49.347H104.062V47.837Z" fill="#00AEEF"/>
<path d="M29.1718 59.277C30.0865 59.2678 30.9939 59.4398 31.8418 59.7831C32.6896 60.1264 33.4611 60.6341 34.1118 61.277C34.9313 62.09 35.537 63.0932 35.875 64.197C36.2129 65.3008 36.2726 66.4711 36.0488 67.6036C35.8249 68.7361 35.3245 69.7956 34.592 70.6879C33.8594 71.5801 32.9177 72.2774 31.8504 72.7175C30.7832 73.1577 29.6237 73.327 28.4752 73.2105C27.3267 73.094 26.2248 72.6952 25.2677 72.0498C24.3106 71.4043 23.528 70.5321 22.9896 69.511C22.4512 68.4898 22.1737 67.3514 22.1818 66.197C22.1684 64.3476 22.8874 62.568 24.1818 61.247C25.4917 59.9543 27.2615 59.2349 29.1018 59.247L29.1718 59.277ZM33.0418 62.387C32.277 61.6225 31.3024 61.1023 30.2416 60.8924C29.1808 60.6825 28.0816 60.7923 27.0833 61.2079C26.085 61.6235 25.2326 62.3262 24.6341 63.2269C24.0357 64.1275 23.7182 65.1856 23.7218 66.267C23.7264 67.7082 24.3017 69.0889 25.3218 70.107C26.3541 71.0664 27.7173 71.5894 29.1263 71.5669C30.5354 71.5443 31.8811 70.9778 32.8821 69.9858C33.8831 68.9939 34.4617 67.6533 34.4971 66.2446C34.5325 64.8358 34.0218 63.4679 33.0718 62.427L33.0418 62.387Z" fill="#00AEEF"/>
<path d="M91.4618 59.277C92.3732 59.27 93.277 59.443 94.1213 59.7862C94.9656 60.1294 95.7338 60.6361 96.3818 61.277C97.6762 62.598 98.3952 64.3776 98.3818 66.227C98.3818 68.0835 97.6443 69.864 96.3315 71.1768C95.0188 72.4895 93.2383 73.227 91.3818 73.227C89.5287 73.2245 87.7522 72.4873 86.4418 71.177C85.793 70.5343 85.2778 69.7696 84.926 68.9269C84.5742 68.0842 84.3926 67.1802 84.3918 66.267C84.3918 64.4105 85.1293 62.63 86.442 61.3173C87.7548 60.0045 89.5353 59.267 91.3918 59.267L91.4618 59.277ZM95.3118 62.387C94.2906 61.3654 92.9062 60.7901 91.4618 60.787C90.7422 60.7857 90.0295 60.9266 89.3646 61.2017C88.6997 61.4767 88.0957 61.8805 87.5874 62.3897C87.0791 62.899 86.6764 63.5037 86.4026 64.1691C86.1288 64.8345 85.9891 65.5475 85.9918 66.267C85.9964 67.7082 86.5717 69.0889 87.5918 70.107C88.096 70.6211 88.6984 71.0286 89.3632 71.3052C90.028 71.5818 90.7417 71.7218 91.4618 71.717C92.9048 71.7091 94.2864 71.1324 95.3068 70.112C96.3272 69.0917 96.9039 67.71 96.9118 66.267C96.9187 65.5461 96.7806 64.8311 96.5058 64.1646C96.2309 63.498 95.8249 62.8936 95.3118 62.387Z" fill="#00AEEF"/>
<path d="M77.9918 33.5371H87.4118C87.617 33.5344 87.815 33.6126 87.9628 33.7549C88.1107 33.8971 88.1966 34.0919 88.2018 34.297V45.0671C88.1966 45.2722 88.1107 45.467 87.9628 45.6092C87.815 45.7515 87.617 45.8297 87.4118 45.827H78.0318C77.831 45.8245 77.6392 45.7436 77.4973 45.6016C77.3553 45.4596 77.2744 45.2678 77.2718 45.0671V34.297C77.2744 34.0963 77.3553 33.9045 77.4973 33.7625C77.6392 33.6205 77.831 33.5396 78.0318 33.5371H77.9918ZM86.6218 35.0871H78.7418V44.3171H86.6218V35.0871Z" fill="#00AEEF"/>
<path d="M22.8418 0.0870455C28.1177 0.094393 33.2279 1.9304 37.3021 5.28239C41.3764 8.63438 44.1626 13.2951 45.1864 18.4707C46.2102 23.6463 45.4083 29.0168 42.9171 33.6675C40.4259 38.3182 36.3995 41.9615 31.5238 43.977C26.648 45.9925 21.2244 46.2555 16.1765 44.7211C11.1286 43.1868 6.76871 39.9501 3.83928 35.5622C0.909851 31.1743 -0.407923 25.9066 0.110368 20.6562C0.62866 15.4058 2.95095 10.4975 6.68178 6.76704C8.80165 4.64275 11.3209 2.95888 14.0943 1.81242C16.8678 0.66596 19.8407 0.0795806 22.8418 0.0870455ZM37.8918 7.84704C34.4074 4.38385 29.8306 2.23495 24.9403 1.76599C20.05 1.29702 15.1483 2.53696 11.0692 5.27482C6.9901 8.01268 3.98564 12.0793 2.56703 16.7828C1.14843 21.4862 1.40332 26.5359 3.28835 31.0726C5.17338 35.6093 8.57208 39.3527 12.9061 41.6659C17.2402 43.9791 22.2419 44.7191 27.0601 43.7601C31.8783 42.8011 36.2154 40.2022 39.3334 36.4058C42.4514 32.6093 44.1576 27.8498 44.1618 22.937C44.1647 20.1324 43.6122 17.3549 42.536 14.7649C41.4599 12.175 39.8814 9.82377 37.8918 7.84704Z" fill="#00AEEF"/>
<path d="M22.8418 11.1771C28.3333 11.0667 33.7788 12.1982 38.7718 14.4871C43.0218 16.5971 45.6718 19.5571 45.6718 22.9271C45.6718 26.2971 43.0218 29.2271 38.7718 31.3671C33.7363 33.5247 28.3151 34.6372 22.8368 34.6372C17.3585 34.6372 11.9373 33.5247 6.90179 31.3671C2.65179 29.2271 0.00180054 26.2671 0.00180054 22.9271C0.00180054 19.5871 2.65179 16.5971 6.90179 14.4871C11.898 12.1971 17.347 11.0656 22.8418 11.1771ZM38.1118 15.8471C33.2874 13.7689 28.0897 12.697 22.8368 12.697C17.5839 12.697 12.3862 13.7689 7.5618 15.8471C3.8418 17.7071 1.5618 20.1971 1.5618 22.9371C1.5618 25.6771 3.8918 28.1671 7.5618 29.9371C12.3862 32.0152 17.5839 33.0871 22.8368 33.0871C28.0897 33.0871 33.2874 32.0152 38.1118 29.9371C41.8318 28.1171 44.1618 25.5971 44.1618 22.9371C44.1618 20.2771 41.8318 17.7071 38.1118 15.8471Z" fill="#00AEEF"/>
<path d="M22.8418 0.0870361C26.8418 0.0870361 30.3918 2.70703 32.9818 6.92703C35.6269 11.8453 37.0114 17.3426 37.0114 22.927C37.0114 28.5115 35.6269 34.0088 32.9818 38.927C30.3918 43.147 26.8018 45.757 22.8418 45.757C18.8818 45.757 15.2818 43.147 12.6918 38.927C10.0467 34.0088 8.66223 28.5115 8.66223 22.927C8.66223 17.3426 10.0467 11.8453 12.6918 6.92703C15.2818 2.70703 18.8418 0.0870361 22.8418 0.0870361ZM31.6918 7.67703C29.3918 3.93703 26.2718 1.60703 22.8418 1.60703C19.4118 1.60703 16.2818 3.93703 13.9918 7.67703C11.4839 12.3618 10.1718 17.5933 10.1718 22.907C10.1718 28.2208 11.4839 33.4523 13.9918 38.137C16.2818 41.887 19.4018 44.217 22.8418 44.217C26.2818 44.217 29.3918 41.887 31.6918 38.137C34.1937 33.4504 35.5025 28.2196 35.5025 22.907C35.5025 17.5944 34.1937 12.3636 31.6918 7.67703Z" fill="#00AEEF"/>
<path d="M22.0818 0.847031C22.0695 0.740586 22.0799 0.632746 22.1122 0.530594C22.1446 0.428442 22.1982 0.33429 22.2695 0.254303C22.3408 0.174316 22.4282 0.11031 22.5259 0.0664825C22.6237 0.0226552 22.7296 0 22.8368 0C22.9439 0 23.0499 0.0226552 23.1477 0.0664825C23.2454 0.11031 23.3328 0.174316 23.4041 0.254303C23.4754 0.33429 23.529 0.428442 23.5614 0.530594C23.5937 0.632746 23.6041 0.740586 23.5918 0.847031V44.977C23.6041 45.0835 23.5937 45.1913 23.5614 45.2935C23.529 45.3956 23.4754 45.4898 23.4041 45.5698C23.3328 45.6497 23.2454 45.7138 23.1477 45.7576C23.0499 45.8014 22.9439 45.8241 22.8368 45.8241C22.7296 45.8241 22.6237 45.8014 22.5259 45.7576C22.4282 45.7138 22.3408 45.6497 22.2695 45.5698C22.1982 45.4898 22.1446 45.3956 22.1122 45.2935C22.0799 45.1913 22.0695 45.0835 22.0818 44.977V0.847031Z" fill="#00AEEF"/>
</svg>
