<svg width="85" height="63" viewBox="0 0 85 63" fill="none" xmlns="http://www.w3.org/2000/svg">
<path d="M46.64 17.82H9.32001V19.4H46.64V17.82Z" fill="#00AEEF"/>
<path d="M41.73 26.01H9.32001V27.59H41.73V26.01Z" fill="#00AEEF"/>
<path d="M33.89 34.2H9.32001V35.78H33.89V34.2Z" fill="#00AEEF"/>
<path d="M0.789978 4.40998H46.64C46.847 4.4125 47.045 4.49517 47.1923 4.64063C47.3396 4.78609 47.4248 4.98304 47.43 5.19001V30.33L65.35 34.67L67.84 34.08C67.9444 34.0485 68.0543 34.0391 68.1625 34.0522C68.2708 34.0653 68.3752 34.1006 68.4692 34.1561C68.5631 34.2115 68.6446 34.2858 68.7084 34.3742C68.7722 34.4627 68.817 34.5634 68.84 34.67V34.86V48.41C68.8348 48.6169 68.7496 48.8138 68.6023 48.9593C68.455 49.1048 68.257 49.1875 68.05 49.19H28.09L5.66998 62.42C5.48651 62.5268 5.26847 62.5573 5.06274 62.5049C4.85702 62.4525 4.6801 62.3215 4.57001 62.14C4.50067 62.0039 4.46626 61.8527 4.46997 61.7L4.34998 49.17H0.789978C0.58296 49.1675 0.384995 49.0848 0.237671 48.9393C0.090347 48.7939 0.00516045 48.5969 2.63606e-09 48.39V5.16999C-8.48539e-06 5.06671 0.0204802 4.96444 0.0603027 4.86914C0.100125 4.77385 0.158502 4.68743 0.231995 4.61487C0.305487 4.54231 0.392612 4.48508 0.488403 4.44648C0.584195 4.40787 0.686709 4.38863 0.789978 4.38996V4.40998ZM45.79 5.97998H1.57001V47.59H5.17999C5.28591 47.5913 5.39051 47.6136 5.48773 47.6556C5.58496 47.6977 5.67291 47.7586 5.7464 47.8349C5.81989 47.9112 5.87744 48.0013 5.91583 48.1C5.95422 48.1987 5.97263 48.3041 5.96997 48.41L6.09998 60.41L27.51 47.79C27.6355 47.6904 27.7899 47.6343 27.95 47.63H67.29V35.84L65.59 36.25C65.4638 36.2653 65.3362 36.2653 65.21 36.25L46.57 31.68C46.3808 31.6538 46.2072 31.5607 46.0807 31.4176C45.9541 31.2745 45.883 31.0909 45.88 30.9L45.79 5.97998ZM52.24 5.26001L65.31 8.44001L67.8 7.83997C67.9051 7.81017 68.0152 7.8022 68.1235 7.81659C68.2318 7.83098 68.3361 7.86743 68.4298 7.92365C68.5235 7.97987 68.6047 8.05469 68.6683 8.1435C68.732 8.2323 68.7768 8.33322 68.8 8.44001V8.63001C68.7992 8.81367 68.7319 8.99079 68.6105 9.12866C68.4892 9.26654 68.3221 9.35584 68.14 9.38001L65.52 10.04C65.3941 10.06 65.2659 10.06 65.14 10.04L51.88 6.79999L52.24 5.26001Z" fill="#00AEEF"/>
<path d="M46.86 3.95997L65.54 8.52997C65.7031 8.57027 65.8478 8.66416 65.9512 8.79651C66.0545 8.92887 66.1105 9.09209 66.11 9.26001V35.49C66.1114 35.5902 66.0926 35.6896 66.0549 35.7824C66.0172 35.8752 65.9613 35.9596 65.8904 36.0304C65.8196 36.1012 65.7353 36.1572 65.6425 36.1949C65.5496 36.2326 65.4502 36.2514 65.35 36.25C65.2673 36.2642 65.1828 36.2642 65.1 36.25L46.4601 31.71C46.2954 31.6657 46.1501 31.568 46.047 31.4323C45.9438 31.2966 45.8887 31.1304 45.8901 30.96V4.71998C45.8914 4.61885 45.9125 4.51901 45.9524 4.42609C45.9924 4.33317 46.0502 4.24898 46.1226 4.17841C46.195 4.10784 46.2807 4.05225 46.3746 4.01478C46.4686 3.9773 46.5689 3.95864 46.67 3.95997H46.8901H46.86ZM64.6 9.85999L47.4 5.66999V30.33L64.6 34.55V9.85999Z" fill="#00AEEF"/>
<path d="M83.34 5.66998L66.11 9.85999V34.55L83.34 30.33V5.66998ZM65.1801 8.52997L83.8201 3.95996C83.8801 3.95996 83.9801 3.95996 84.0701 3.95996C84.2708 3.96255 84.4626 4.04345 84.6046 4.18542C84.7466 4.32739 84.8275 4.51921 84.8301 4.71997V30.96C84.8247 31.1331 84.7633 31.2998 84.6551 31.4351C84.547 31.5703 84.3978 31.6667 84.23 31.71L65.5801 36.25C65.4974 36.2652 65.4127 36.2652 65.3301 36.25C65.2304 36.2514 65.1313 36.2326 65.0391 36.1948C64.9468 36.1569 64.8631 36.1008 64.7931 36.0298C64.723 35.9589 64.668 35.8744 64.6314 35.7817C64.5948 35.6889 64.5774 35.5897 64.5801 35.49V9.26001C64.5848 9.08896 64.6462 8.92431 64.7549 8.79211C64.8635 8.65992 65.0131 8.56768 65.1801 8.52997Z" fill="#00AEEF"/>
<path d="M80.66 4.75L65.35 1.53998L50.05 4.75L65.35 8.46997L80.66 4.75ZM65.5101 0L84.2501 4C84.3885 4.03306 84.515 4.10379 84.6156 4.20441C84.7162 4.30502 84.787 4.43161 84.8201 4.57001C84.8552 4.76665 84.8165 4.96935 84.7112 5.13916C84.606 5.30898 84.4418 5.43392 84.2501 5.48999L65.54 10.05H65.1801L46.47 5.48999C46.3228 5.45856 46.1878 5.38515 46.0813 5.27869C45.9748 5.17222 45.9015 5.0372 45.8701 4.88995C45.8483 4.79192 45.8468 4.69051 45.8655 4.59186C45.8842 4.4932 45.9228 4.39936 45.9789 4.3161C46.0351 4.23284 46.1075 4.16189 46.192 4.10754C46.2764 4.05319 46.371 4.01662 46.47 4L65.1801 0H65.5101Z" fill="#00AEEF"/>
<path d="M81.18 27.96C81.18 28.1598 81.1013 28.3517 80.961 28.4939C80.8206 28.6361 80.6299 28.7173 80.43 28.72C80.3299 28.7213 80.2304 28.7026 80.1376 28.6649C80.0448 28.6271 79.9605 28.5712 79.8896 28.5004C79.8188 28.4295 79.7629 28.3452 79.7251 28.2524C79.6874 28.1596 79.6687 28.0601 79.67 27.96V8.95997C79.6687 8.85979 79.6874 8.76036 79.7251 8.66755C79.7629 8.57473 79.8188 8.4904 79.8896 8.41956C79.9605 8.34872 80.0448 8.29279 80.1376 8.25507C80.2304 8.21736 80.3299 8.19867 80.43 8.20002C80.6299 8.20265 80.8206 8.28385 80.961 8.42609C81.1013 8.56834 81.18 8.76012 81.18 8.95997V27.96Z" fill="#00AEEF"/>
<path d="M77.42 24.91C77.42 25.1115 77.3399 25.3049 77.1974 25.4474C77.0549 25.5899 76.8616 25.67 76.66 25.67C76.4584 25.67 76.2652 25.5899 76.1227 25.4474C75.9801 25.3049 75.9 25.1115 75.9 24.91V11.91C75.9 11.7084 75.9801 11.5151 76.1227 11.3726C76.2652 11.23 76.4584 11.15 76.66 11.15C76.8616 11.15 77.0549 11.23 77.1974 11.3726C77.3399 11.5151 77.42 11.7084 77.42 11.91V24.91Z" fill="#00AEEF"/>
</svg>
