<svg width="276" height="195" viewBox="0 0 276 195" fill="none" xmlns="http://www.w3.org/2000/svg">
<rect width="275.281" height="194.907" transform="translate(0 0.0929565)" fill="#181933"/>
<g clip-path="url(#clip0_116_2)">
<path d="M93.5956 42.5283V111.609H161.004V92.4422H103.036V50.582H181.871V42.5283H93.5956Z" fill="url(#paint0_linear_116_2)"/>
<path d="M114.27 80.8904H172.431V122.751H93.5956V130.804H181.871V61.7203H114.27V80.8904Z" fill="url(#paint1_linear_116_2)"/>
<path d="M104.353 141.167H100.025V149.908H97.9536V141.167H93.6029V139.751H104.353V141.167Z" fill="white" fill-opacity="0.85"/>
<path d="M110.08 150.051C109.377 150.067 108.68 149.922 108.042 149.627C107.498 149.375 107.02 148.999 106.648 148.529V152.949H104.631V142.484H106.41V143.827C106.798 143.368 107.288 143.004 107.841 142.766C108.46 142.495 109.13 142.359 109.805 142.367C110.429 142.358 111.049 142.462 111.635 142.674C112.161 142.862 112.646 143.147 113.066 143.516C113.457 143.86 113.777 144.276 114.01 144.742C114.236 145.196 114.353 145.698 114.35 146.205C114.356 146.892 114.168 147.567 113.809 148.152C113.446 148.748 112.925 149.232 112.305 149.55C111.616 149.899 110.852 150.072 110.08 150.051ZM109.418 148.708C109.823 148.716 110.226 148.644 110.603 148.496C110.932 148.366 111.234 148.175 111.492 147.933C111.731 147.706 111.923 147.435 112.059 147.135C112.195 146.841 112.265 146.521 112.264 146.198C112.266 145.862 112.19 145.53 112.041 145.228C111.89 144.925 111.674 144.657 111.408 144.445C111.123 144.216 110.801 144.035 110.457 143.911C110.082 143.777 109.687 143.71 109.29 143.714C109.014 143.714 108.739 143.752 108.474 143.827C108.197 143.901 107.93 144.004 107.676 144.134C107.435 144.256 107.213 144.41 107.014 144.592C106.841 144.751 106.715 144.953 106.648 145.177V147.102C106.826 147.41 107.056 147.685 107.328 147.914C107.618 148.157 107.946 148.351 108.298 148.489C108.654 148.632 109.034 148.707 109.418 148.708Z" fill="white" fill-opacity="0.85"/>
<path d="M115.451 147.742C115.451 147.511 115.497 147.282 115.587 147.069C115.677 146.856 115.809 146.663 115.975 146.502C116.386 146.11 116.89 145.827 117.438 145.679C118.126 145.475 118.84 145.378 119.557 145.389C119.992 145.39 120.427 145.415 120.86 145.466C121.262 145.512 121.661 145.586 122.052 145.689V145.217C122.061 144.981 122.011 144.746 121.905 144.535C121.8 144.323 121.643 144.142 121.449 144.006C120.926 143.685 120.316 143.533 119.703 143.571C119.188 143.566 118.675 143.639 118.181 143.787C117.653 143.95 117.143 144.166 116.659 144.431L115.997 143.355C116.596 143.037 117.231 142.792 117.888 142.623C118.553 142.453 119.237 142.368 119.923 142.371C121.206 142.371 122.216 142.633 122.953 143.157C123.308 143.406 123.595 143.741 123.787 144.131C123.979 144.52 124.07 144.952 124.05 145.386V148.145C124.045 148.211 124.053 148.278 124.075 148.341C124.097 148.405 124.132 148.462 124.178 148.511C124.3 148.601 124.448 148.646 124.599 148.639V149.897C124.416 149.927 124.233 149.945 124.113 149.956C123.992 149.967 123.853 149.974 123.747 149.985C123.399 150.001 123.054 149.911 122.759 149.725C122.659 149.661 122.573 149.578 122.506 149.48C122.44 149.382 122.394 149.271 122.371 149.155L122.316 148.727C121.87 149.171 121.326 149.504 120.728 149.7C120.094 149.924 119.427 150.039 118.756 150.04C118.173 150.051 117.594 149.948 117.05 149.736C116.594 149.565 116.19 149.279 115.876 148.906C115.603 148.579 115.453 148.168 115.451 147.742ZM121.562 148.203C121.683 148.09 121.796 147.967 121.899 147.837C121.98 147.743 122.029 147.625 122.038 147.501V146.67C121.679 146.564 121.312 146.487 120.94 146.44C120.576 146.389 120.21 146.364 119.842 146.363C119.222 146.337 118.604 146.452 118.035 146.699C117.84 146.768 117.671 146.893 117.548 147.059C117.426 147.224 117.356 147.423 117.347 147.629C117.35 147.853 117.432 148.069 117.577 148.24C117.756 148.451 117.983 148.616 118.24 148.719C118.574 148.854 118.933 148.919 119.293 148.909C119.73 148.912 120.164 148.842 120.578 148.705C120.932 148.593 121.266 148.423 121.566 148.203H121.562Z" fill="white" fill-opacity="0.85"/>
<path d="M126.498 149.908V142.484H128.5V145.411H132.975V142.484H135.013V149.908H132.975V146.791H128.5V149.908H126.498Z" fill="white" fill-opacity="0.85"/>
<path d="M137.435 149.908V142.484H139.433V145.411H140.388L143.213 142.484H145.456L141.951 146.074L145.822 149.908H143.509L140.355 146.831H139.419V149.908H137.435Z" fill="white" fill-opacity="0.85"/>
<path d="M151.212 150.051C150.522 150.063 149.834 149.96 149.177 149.747C148.613 149.563 148.088 149.278 147.626 148.906C147.211 148.57 146.87 148.152 146.627 147.676C146.394 147.224 146.275 146.722 146.279 146.213C146.275 145.698 146.394 145.19 146.627 144.731C146.87 144.257 147.211 143.839 147.626 143.505C148.089 143.131 148.618 142.845 149.185 142.663C149.839 142.451 150.524 142.347 151.212 142.356C151.9 142.345 152.585 142.449 153.239 142.663C153.803 142.848 154.328 143.133 154.79 143.505C155.209 143.839 155.553 144.256 155.8 144.731C156.037 145.189 156.163 145.697 156.166 146.213C156.163 146.723 156.038 147.225 155.8 147.676C155.554 148.15 155.215 148.568 154.801 148.906C154.336 149.28 153.807 149.565 153.239 149.747C152.584 149.959 151.9 150.061 151.212 150.051ZM148.35 146.209C148.338 146.665 148.466 147.113 148.716 147.493C148.978 147.873 149.332 148.179 149.744 148.383C150.189 148.603 150.679 148.714 151.175 148.708C151.682 148.717 152.184 148.605 152.639 148.383C153.056 148.178 153.41 147.866 153.667 147.479C153.923 147.101 154.06 146.655 154.06 146.198C154.06 145.742 153.923 145.295 153.667 144.917C153.407 144.534 153.05 144.225 152.632 144.025C152.183 143.805 151.689 143.693 151.19 143.699C150.681 143.688 150.178 143.805 149.726 144.039C149.315 144.251 148.962 144.56 148.698 144.939C148.455 145.317 148.334 145.76 148.35 146.209Z" fill="white" fill-opacity="0.85"/>
<path d="M157.945 149.908V142.484H160.038L163.331 147.069L166.624 142.484H168.699V149.908H166.789V144.669L163.946 148.588H162.679L159.836 144.683V149.908H157.945Z" fill="white" fill-opacity="0.85"/>
<path d="M170.44 144.745C170.442 144.112 170.586 143.486 170.861 142.916C171.161 142.294 171.583 141.739 172.102 141.284C172.682 140.772 173.353 140.375 174.081 140.113C174.932 139.808 175.831 139.659 176.734 139.674C177.786 139.647 178.831 139.86 179.789 140.296C180.555 140.645 181.209 141.199 181.681 141.895L180.064 142.74C179.847 142.345 179.535 142.011 179.156 141.767C178.783 141.529 178.371 141.359 177.938 141.266C177.516 141.173 177.086 141.125 176.654 141.123C176.044 141.112 175.439 141.222 174.872 141.445C174.388 141.64 173.949 141.93 173.58 142.297C173.242 142.636 172.977 143.039 172.801 143.483C172.633 143.902 172.546 144.349 172.544 144.8C172.542 145.288 172.644 145.771 172.844 146.216C173.05 146.669 173.343 147.076 173.708 147.413C174.093 147.768 174.541 148.047 175.029 148.236C175.565 148.44 176.135 148.542 176.708 148.536C177.151 148.535 177.593 148.48 178.022 148.372C178.468 148.261 178.892 148.077 179.277 147.826C179.654 147.591 179.967 147.267 180.188 146.882L181.893 147.614C181.607 148.15 181.177 148.595 180.653 148.902C180.058 149.265 179.412 149.535 178.736 149.704C178.047 149.881 177.339 149.972 176.628 149.974C175.781 149.983 174.94 149.83 174.151 149.524C173.427 149.243 172.759 148.835 172.179 148.32C171.643 147.846 171.204 147.273 170.883 146.634C170.594 146.046 170.443 145.4 170.44 144.745Z" fill="white" fill-opacity="0.85"/>
</g>
<defs>
<linearGradient id="paint0_linear_116_2" x1="137.734" y1="42.5283" x2="137.734" y2="111.609" gradientUnits="userSpaceOnUse">
<stop stop-color="white" stop-opacity="0.2"/>
<stop offset="1" stop-color="white" stop-opacity="0.85"/>
</linearGradient>
<linearGradient id="paint1_linear_116_2" x1="137.734" y1="61.7203" x2="137.734" y2="130.804" gradientUnits="userSpaceOnUse">
<stop stop-color="white" stop-opacity="0.2"/>
<stop offset="1" stop-color="white" stop-opacity="0.85"/>
</linearGradient>
<clipPath id="clip0_116_2">
<rect width="88.3125" height="110.428" fill="white" transform="translate(93.5956 42.5283)"/>
</clipPath>
</defs>
</svg>
