<svg width="58" height="58" viewBox="0 0 58 58" fill="none" xmlns="http://www.w3.org/2000/svg">
<circle cx="29" cy="29" r="29" fill="#169FDB"/>
<path d="M11.0119 13.7796H29.5588C29.6044 13.7808 29.6493 13.7909 29.691 13.8094C29.7327 13.828 29.7703 13.8545 29.8017 13.8876C29.8331 13.9207 29.8577 13.9596 29.874 14.0022C29.8903 14.0448 29.8981 14.0902 29.8969 14.1358C29.8962 14.1851 29.8822 14.2334 29.8564 14.2755C29.6 14.8719 29.3993 15.4906 29.2568 16.1239C29.1261 16.7588 29.0596 17.4052 29.0584 18.0534C29.0584 21.7727 33.4765 28.7334 36.5556 33.6023C37.2814 34.7384 37.9081 35.7438 38.431 36.6003C38.9405 35.7438 39.5806 34.7384 40.3065 33.6023C41.7671 31.3031 43.5163 28.5351 44.9635 25.8617C45.0056 25.7842 45.0763 25.7262 45.1605 25.7001C45.2447 25.674 45.3358 25.6818 45.4143 25.7219C45.4684 25.751 45.514 25.7938 45.5464 25.8461C45.5788 25.8983 45.597 25.9581 45.5992 26.0195V45.6574C45.5998 45.7025 45.5913 45.7474 45.5743 45.7892C45.5573 45.831 45.5321 45.8691 45.5001 45.901C45.4682 45.9329 45.4302 45.9582 45.3883 45.9752C45.3465 45.9922 45.3017 46.0006 45.2565 46H10.9939C10.9489 46.0006 10.9043 45.9922 10.8627 45.9751C10.8211 45.958 10.7834 45.9328 10.7518 45.9008C10.7202 45.8688 10.6954 45.8307 10.6789 45.7889C10.6624 45.747 10.6546 45.7023 10.6558 45.6574V14.1358C10.6546 14.0902 10.6624 14.0448 10.6787 14.0022C10.6951 13.9596 10.7196 13.9207 10.751 13.8876C10.7824 13.8545 10.82 13.828 10.8617 13.8094C10.9034 13.7909 10.9483 13.7808 10.9939 13.7796H11.0119ZM29.0449 14.4739H11.3545V45.3148H44.9184V27.3404C43.6155 29.6711 42.1368 31.9839 40.888 33.972C40.0225 35.3245 39.2696 36.5282 38.7421 37.4343C38.707 37.4923 38.6592 37.5416 38.6024 37.5786C38.5243 37.6137 38.4364 37.6203 38.3541 37.5972C38.2717 37.5742 38.2 37.5229 38.1515 37.4524C37.6241 36.5507 36.8577 35.3335 35.9921 33.972C32.8679 29.013 28.3957 21.9576 28.3957 18.0534C28.3949 17.3567 28.4659 16.6618 28.6076 15.9796C28.7212 15.4674 28.8718 14.9642 29.0584 14.4739H29.0449Z" fill="white"/>
<path d="M10.9263 26.2584L29.2162 21.3489L29.401 21.9981L11.0976 26.912L10.9263 26.2584Z" fill="white"/>
<path d="M45.0491 45.9279L26.9305 31.5691L27.3543 31.0461L45.4729 45.3869L45.0491 45.9279Z" fill="white"/>
<path d="M31.7588 26.4748C31.79 26.4422 31.8274 26.4163 31.8689 26.3986C31.9103 26.3808 31.955 26.3717 32 26.3717C32.0451 26.3717 32.0897 26.3808 32.1312 26.3986C32.1726 26.4163 32.2101 26.4422 32.2412 26.4748C32.3017 26.5406 32.3353 26.6267 32.3353 26.716C32.3353 26.8054 32.3017 26.8915 32.2412 26.9572L12.2201 45.8918L11.7693 45.3914L31.7588 26.4748Z" fill="white"/>
<path d="M25.7358 19.744L17.603 14.4197L17.9681 13.8337L29.8248 21.6014L29.4551 22.1694L25.7358 19.744Z" fill="white"/>
<path d="M38.431 8C41.097 8.00119 43.6534 9.06077 45.5385 10.9459C47.4237 12.831 48.4832 15.3874 48.4844 18.0534C48.4844 21.9575 44.0122 29.031 40.888 33.972C40.0225 35.3245 39.2561 36.5417 38.7286 37.4523C38.6801 37.5229 38.6085 37.5741 38.5261 37.5972C38.4437 37.6203 38.3558 37.6137 38.2778 37.5786C38.2302 37.5424 38.1877 37.4999 38.1515 37.4523C37.6241 36.5507 36.8577 35.3335 35.9921 33.972V33.9449C32.8363 28.9859 28.3957 21.9575 28.3957 18.0534C28.3969 15.3874 29.4565 12.831 31.3416 10.9459C33.2267 9.06077 35.7831 8.00119 38.4491 8H38.431ZM45.0627 11.4353C43.3046 9.68026 40.9219 8.69456 38.4378 8.69456C35.9537 8.69456 33.571 9.68026 31.8129 11.4353C30.9386 12.3012 30.2449 13.3321 29.7721 14.4681C29.2992 15.6042 29.0567 16.8228 29.0584 18.0534C29.0584 21.7592 33.463 28.7154 36.5421 33.5888C37.2679 34.7249 37.8946 35.7302 38.4175 36.5868C38.927 35.7302 39.5671 34.7249 40.2929 33.5888C43.3721 28.7199 47.7901 21.7592 47.7901 18.0399C47.7912 16.8106 47.5496 15.5933 47.0792 14.4576C46.6089 13.3219 45.919 12.2903 45.0491 11.4218L45.0627 11.4353Z" fill="white"/>
<path d="M38.4311 11.7373C39.8322 11.736 41.1904 12.2206 42.2741 13.1086C43.3579 13.9966 44.1002 15.233 44.3744 16.607C44.6486 17.981 44.4377 19.4076 43.7778 20.6435C43.1179 21.8795 42.0498 22.8483 40.7555 23.3849C39.4612 23.9214 38.0209 23.9925 36.6801 23.586C35.3392 23.1794 34.1809 22.3204 33.4025 21.1554C32.6242 19.9904 32.274 18.5915 32.4116 17.1972C32.5492 15.8028 33.1661 14.4994 34.1572 13.509C34.7175 12.9464 35.3836 12.5002 36.1171 12.1961C36.8506 11.892 37.637 11.7361 38.4311 11.7373ZM42.2225 13.9914C41.3461 13.1211 40.1952 12.5814 38.9656 12.464C37.7361 12.3467 36.5039 12.659 35.4787 13.3478C34.4535 14.0367 33.6986 15.0595 33.3426 16.2422C32.9866 17.4249 33.0513 18.6944 33.5259 19.8347C34.0005 20.9751 34.8555 21.9157 35.9455 22.4966C37.0355 23.0775 38.2931 23.2628 39.5043 23.0209C40.7155 22.779 41.8055 22.1249 42.5888 21.1699C43.3721 20.2149 43.8002 19.018 43.8004 17.7829C43.7932 16.3608 43.2263 14.9987 42.2225 13.9914Z" fill="white"/>
<path d="M38.4311 13.9915C38.3861 13.9927 38.3414 13.9848 38.2996 13.9683C38.2577 13.9518 38.2197 13.927 38.1877 13.8955C38.1557 13.8639 38.1304 13.8262 38.1133 13.7846C38.0963 13.743 38.0878 13.6983 38.0884 13.6534C38.0896 13.5629 38.1261 13.4764 38.1901 13.4124C38.2541 13.3484 38.3405 13.3119 38.4311 13.3107C39.0187 13.3096 39.6008 13.4244 40.1439 13.6487C40.687 13.8731 41.1805 14.2024 41.596 14.618C42.0115 15.0335 42.3409 15.527 42.5652 16.0701C42.7896 16.6132 42.9044 17.1953 42.9032 17.7829C42.9044 17.8279 42.8966 17.8726 42.8801 17.9144C42.8636 17.9562 42.8388 17.9943 42.8072 18.0263C42.7756 18.0583 42.7379 18.0836 42.6963 18.1006C42.6547 18.1177 42.6101 18.1262 42.5651 18.1255C42.5199 18.1261 42.4751 18.1177 42.4333 18.1007C42.3914 18.0837 42.3534 18.0585 42.3215 18.0265C42.2895 17.9946 42.2643 17.9566 42.2473 17.9148C42.2303 17.8729 42.2219 17.8281 42.2225 17.7829C42.2177 16.7788 41.8168 15.8172 41.1068 15.1072C40.3968 14.3972 39.4351 13.9962 38.4311 13.9915Z" fill="white"/>
</svg>
