<svg width="58" height="58" viewBox="0 0 58 58" fill="none" xmlns="http://www.w3.org/2000/svg">
<circle cx="29" cy="29" r="29" fill="#169FDB"/>
<path d="M29.6845 22.8876L33.0998 23.7138C33.1877 23.7337 33.2664 23.7822 33.3235 23.8518C33.3807 23.9213 33.4131 24.008 33.4156 24.098V47.6C33.4142 47.7057 33.3716 47.8066 33.2969 47.8814C33.2222 47.9561 33.1213 47.9986 33.0156 48C32.9698 47.9966 32.925 47.984 32.8841 47.9632L16.16 43.8848C16.0717 43.8678 15.992 43.8208 15.9345 43.7517C15.8769 43.6826 15.8451 43.5958 15.8442 43.5059V31.2549C15.8456 31.1497 15.8884 31.0493 15.9632 30.9755C16.0381 30.9016 16.139 30.8602 16.2442 30.8602C16.2898 30.8613 16.3346 30.872 16.3758 30.8918C16.7599 30.976 17.1704 31.0391 17.5861 31.0918C18.0034 31.1442 18.4233 31.1724 18.8438 31.176C21.2095 31.1719 23.5072 30.385 25.3787 28.938C27.2503 27.4911 28.5903 25.4654 29.1898 23.177C29.2009 23.1257 29.2223 23.0771 29.2526 23.0342C29.2829 22.9914 29.3216 22.955 29.3664 22.9275C29.4111 22.9 29.461 22.8818 29.5129 22.874C29.5649 22.8663 29.6179 22.8691 29.6687 22.8823L29.6845 22.8876ZM32.6209 24.4137L29.8529 23.7507C29.089 26.3506 27.4274 28.5952 25.1638 30.085C22.9002 31.5748 20.1815 32.2131 17.4914 31.8864C17.2125 31.8548 16.9283 31.8022 16.6494 31.7548V43.1743L32.6262 47.0686L32.6209 24.4137Z" fill="white"/>
<path d="M49.3766 20.5143L33.4156 24.4137V47.0843L49.3766 43.1902V20.5143ZM32.9209 23.7033L49.6607 19.6302C49.6954 19.6078 49.7353 19.5951 49.7765 19.5933C49.8302 19.5932 49.8833 19.6041 49.9326 19.6252C49.9819 19.6464 50.0264 19.6774 50.0633 19.7163C50.1003 19.7552 50.1289 19.8012 50.1474 19.8515C50.166 19.9019 50.1741 19.9555 50.1712 20.009V43.4954C50.1755 43.5833 50.1481 43.6699 50.094 43.7394C50.04 43.8089 49.9628 43.8568 49.8765 43.8743L33.1314 47.9527C33.0957 47.9727 33.0563 47.9853 33.0156 47.9895C32.9631 47.9902 32.911 47.9803 32.8625 47.9604C32.8139 47.9405 32.7699 47.911 32.733 47.8736C32.6962 47.8363 32.6672 47.7919 32.648 47.7431C32.6287 47.6942 32.6195 47.642 32.6209 47.5896V24.098C32.6207 24.0096 32.6501 23.9237 32.7045 23.8541C32.7589 23.7844 32.8351 23.735 32.9209 23.7138V23.7033Z" fill="white"/>
<path d="M48.1031 20.0195L32.7841 16.2727L29.7845 17.0199C29.9511 17.5041 30.0726 18.0027 30.1476 18.5092C30.2696 19.16 30.3312 19.8206 30.3318 20.4826C30.332 20.9703 30.2986 21.4573 30.2318 21.9404C30.1844 22.2877 30.1318 22.6245 30.0528 22.9928L33.0156 23.7033L48.1031 20.0195ZM32.884 15.4623L49.8765 19.6196C49.9462 19.642 50.0095 19.681 50.0608 19.7333C50.1121 19.7855 50.15 19.8494 50.1712 19.9196C50.1837 19.9704 50.1859 20.0232 50.1779 20.0749C50.1698 20.1266 50.1515 20.1761 50.1241 20.2207C50.0966 20.2652 50.0606 20.3039 50.0181 20.3344C49.9756 20.3649 49.9275 20.3867 49.8765 20.3984L33.0998 24.4926C33.0421 24.514 32.9786 24.514 32.9209 24.4926L29.4687 23.6506C29.4182 23.6379 29.3708 23.615 29.3293 23.5836C29.2877 23.5521 29.2529 23.5127 29.2269 23.4675C29.2009 23.4224 29.1842 23.3725 29.1779 23.3208C29.1715 23.2691 29.1755 23.2166 29.1898 23.1665C29.3071 22.7316 29.3898 22.2882 29.4372 21.8404C29.4996 21.3906 29.5278 20.9367 29.5213 20.4826C29.5217 19.8673 29.4707 19.2529 29.3687 18.6461C29.2684 18.0421 29.1134 17.4485 28.9056 16.8726V16.8358C28.8815 16.7347 28.8976 16.6281 28.9507 16.5387C29.0037 16.4493 29.0895 16.3841 29.1898 16.3569L32.6999 15.4623C32.7663 15.4544 32.8334 15.4544 32.8998 15.4623H32.884Z" fill="white"/>
<path d="M46.8558 40.8378C46.8558 40.9453 46.8132 41.0483 46.7372 41.1243C46.6612 41.2003 46.5581 41.243 46.4506 41.243C46.3432 41.243 46.2401 41.2003 46.1641 41.1243C46.0881 41.0483 46.0454 40.9453 46.0454 40.8378V23.798C46.0454 23.6905 46.0881 23.5874 46.1641 23.5114C46.2401 23.4355 46.3432 23.3928 46.4506 23.3928C46.5581 23.3928 46.6612 23.4355 46.7372 23.5114C46.8132 23.5874 46.8558 23.6905 46.8558 23.798V40.8378Z" fill="white"/>
<path d="M43.5405 38.1172C43.5405 38.2247 43.4978 38.3277 43.4218 38.4037C43.3458 38.4797 43.2428 38.5224 43.1353 38.5224C43.0278 38.5224 42.9248 38.4797 42.8488 38.4037C42.7728 38.3277 42.7301 38.2247 42.7301 38.1172V26.5398C42.7301 26.4323 42.7728 26.3293 42.8488 26.2533C42.9248 26.1773 43.0278 26.1346 43.1353 26.1346C43.2428 26.1346 43.3458 26.1773 43.4218 26.2533C43.4978 26.3293 43.5405 26.4323 43.5405 26.5398V38.1172Z" fill="white"/>
<path d="M18.8439 9.00001C21.888 9.00557 24.806 10.217 26.959 12.369C29.1121 14.5211 30.3248 17.4385 30.3318 20.4827C30.333 22.755 29.6601 24.9765 28.3981 26.8662C27.1361 28.7558 25.3419 30.2285 23.2425 31.0979C21.1431 31.9673 18.833 32.1942 16.6045 31.75C14.3761 31.3059 12.3295 30.2105 10.7239 28.6026L10.6923 28.5711C9.09259 26.9626 8.00539 24.9162 7.56803 22.6902C7.13067 20.4642 7.36276 18.1586 8.23499 16.0644C9.10722 13.9703 10.5805 12.1816 12.4687 10.9243C14.3569 9.6669 16.5753 8.99729 18.8439 9.00001ZM26.406 12.9258C24.4039 10.9167 21.6857 9.78522 18.8493 9.78029C16.013 9.77535 13.2908 10.8974 11.2817 12.8995C9.27263 14.9016 8.14116 17.6198 8.13622 20.4562C8.13129 23.2925 9.25329 26.0147 11.2554 28.0238H11.287C12.2794 29.0165 13.4576 29.804 14.7543 30.3414C16.051 30.8788 17.4409 31.1555 18.8446 31.1558C20.2483 31.156 21.6383 30.8798 22.9352 30.3429C24.2322 29.8059 25.4106 29.0188 26.4034 28.0264C27.3961 27.034 28.1836 25.8558 28.721 24.5591C29.2584 23.2623 29.5351 21.8724 29.5354 20.4687C29.5356 19.065 29.2594 17.6751 28.7225 16.3781C28.1855 15.0812 27.3984 13.9027 26.406 12.91V12.9258Z" fill="white"/>
<path d="M18.4334 9.41053C18.4334 9.30306 18.4761 9.19998 18.5521 9.12399C18.6281 9.048 18.7311 9.00531 18.8386 9.00531C18.9461 9.00531 19.0491 9.048 19.1251 9.12399C19.2011 9.19998 19.2438 9.30306 19.2438 9.41053V13.0942C19.2438 13.2017 19.2011 13.3048 19.1251 13.3807C19.0491 13.4567 18.9461 13.4994 18.8386 13.4994C18.7311 13.4994 18.6281 13.4567 18.5521 13.3807C18.4761 13.3048 18.4334 13.2017 18.4334 13.0942V9.41053Z" fill="white"/>
<path d="M29.916 20.088C30.0212 20.088 30.1221 20.1294 30.197 20.2033C30.2719 20.2772 30.3146 20.3776 30.316 20.4827C30.3146 20.5884 30.272 20.6893 30.1973 20.764C30.1226 20.8387 30.0217 20.8813 29.916 20.8827H26.2323C26.1796 20.8834 26.1273 20.8735 26.0784 20.8537C26.0296 20.8338 25.9852 20.8044 25.9479 20.7671C25.9107 20.7298 25.8812 20.6854 25.8614 20.6366C25.8415 20.5878 25.8317 20.5354 25.8324 20.4827C25.8317 20.4302 25.8415 20.3782 25.8614 20.3296C25.8814 20.281 25.9109 20.237 25.9482 20.2001C25.9856 20.1633 26.03 20.1343 26.0788 20.1151C26.1277 20.0958 26.1799 20.0866 26.2323 20.088H29.916Z" fill="white"/>
<path d="M19.2438 31.5549C19.2438 31.6624 19.2011 31.7655 19.1251 31.8414C19.0491 31.9174 18.9461 31.9601 18.8386 31.9601C18.7311 31.9601 18.6281 31.9174 18.5521 31.8414C18.4761 31.7655 18.4334 31.6624 18.4334 31.5549V27.8712C18.4334 27.7637 18.4761 27.6607 18.5521 27.5847C18.6281 27.5087 18.7311 27.466 18.8386 27.466C18.9461 27.466 19.0491 27.5087 19.1251 27.5847C19.2011 27.6607 19.2438 27.7637 19.2438 27.8712V31.5549Z" fill="white"/>
<path d="M7.75587 20.8826C7.65072 20.8812 7.55034 20.8385 7.47647 20.7636C7.4026 20.6888 7.36118 20.5878 7.36119 20.4827C7.36255 20.3784 7.40457 20.2788 7.4783 20.2051C7.55202 20.1314 7.65162 20.0894 7.75587 20.088H11.4396C11.4916 20.0873 11.5433 20.097 11.5915 20.1166C11.6397 20.1362 11.6835 20.1652 11.7202 20.202C11.757 20.2388 11.7861 20.2826 11.8057 20.3308C11.8253 20.379 11.835 20.4306 11.8343 20.4827C11.8357 20.5351 11.8265 20.5873 11.8072 20.6362C11.788 20.685 11.759 20.7294 11.7222 20.7668C11.6853 20.8041 11.6413 20.8336 11.5927 20.8536C11.5442 20.8735 11.4921 20.8834 11.4396 20.8826H7.75587Z" fill="white"/>
<path d="M15.0496 14.0204C15.0026 13.9319 14.9901 13.8292 15.0144 13.732C15.0387 13.6348 15.0981 13.5501 15.1812 13.4941C15.2694 13.4459 15.3725 13.4327 15.47 13.4571C15.5675 13.4815 15.6523 13.5417 15.7074 13.6257L19.7016 20.288C19.7339 20.3469 19.7508 20.4129 19.7508 20.4801C19.7508 20.5472 19.7339 20.6132 19.7016 20.6721L16.8494 26.7871C16.8007 26.8797 16.7181 26.9499 16.6189 26.983C16.5196 27.0161 16.4114 27.0095 16.3169 26.9646C16.2224 26.9198 16.1489 26.8401 16.1118 26.7422C16.0747 26.6444 16.0769 26.536 16.1179 26.4398L18.8859 20.5195L15.0496 14.0204Z" fill="white"/>
</svg>
