<svg width="58" height="58" viewBox="0 0 58 58" fill="none" xmlns="http://www.w3.org/2000/svg">
<circle cx="29" cy="29" r="29" fill="#169FDB"/>
<path d="M15.4832 10H42.1131C42.4415 9.99872 42.7669 10.0624 43.0706 10.1875C43.3742 10.3126 43.6501 10.4965 43.8823 10.7287C44.1146 10.961 44.2985 11.2369 44.4236 11.5405C44.5486 11.8442 44.6124 12.1696 44.6111 12.498V19.1099C44.6114 19.1592 44.602 19.2081 44.5834 19.2537C44.5648 19.2994 44.5374 19.3409 44.5027 19.3759L30.5053 33.3881L33.7965 36.6743L43.9755 26.4953C44.0091 26.4591 44.0499 26.4301 44.0953 26.4104C44.1406 26.3906 44.1896 26.3804 44.2391 26.3804C44.2886 26.3804 44.3375 26.3906 44.3829 26.4104C44.4282 26.4301 44.469 26.4591 44.5027 26.4953C44.5399 26.5284 44.569 26.5696 44.5878 26.6157C44.6066 26.6619 44.6146 26.7117 44.6111 26.7614V45.6758C44.6116 46.0019 44.5475 46.3248 44.4223 46.6259C44.2971 46.927 44.1134 47.2002 43.8819 47.4298C43.4133 47.9011 42.7777 48.1684 42.1131 48.1737H15.4832C14.8183 48.17 14.1821 47.9024 13.7144 47.4298C13.2557 46.9673 12.9988 46.3419 13 45.6906V12.498C13.0019 11.8356 13.2638 11.2005 13.7292 10.7292C13.9615 10.4972 14.2373 10.3133 14.5408 10.1882C14.8444 10.0631 15.1696 9.99911 15.498 10H15.4832ZM42.1131 10.744H15.4832C15.2527 10.7433 15.0243 10.7883 14.8112 10.8762C14.5981 10.9641 14.4045 11.0933 14.2415 11.2563C14.0785 11.4193 13.9493 11.6129 13.8614 11.826C13.7735 12.0391 13.7285 12.2674 13.7292 12.498V45.6758C13.7268 46.129 13.9039 46.5648 14.2219 46.8878C14.3863 47.0475 14.5806 47.1732 14.7936 47.2577C15.0067 47.3423 15.2343 47.384 15.4635 47.3805H42.0934C42.5564 47.3818 43.0011 47.1995 43.3299 46.8734C43.6587 46.5474 43.8448 46.1043 43.8474 45.6413V27.6581L34.0379 37.4675C33.9661 37.5337 33.872 37.5704 33.7743 37.5704C33.6767 37.5704 33.5826 37.5337 33.5107 37.4675L29.6776 33.6492C29.6115 33.5773 29.5748 33.4833 29.5748 33.3856C29.5748 33.288 29.6115 33.1939 29.6776 33.122L43.8474 18.9571V12.498C43.8467 12.0366 43.6705 11.5927 43.3547 11.2564C43.0194 10.9388 42.5749 10.7624 42.1131 10.7637V10.744Z" fill="white"/>
<path d="M18.4492 17.8831C18.3486 17.8831 18.2521 17.8431 18.1809 17.7719C18.1098 17.7008 18.0698 17.6043 18.0698 17.5037C18.0698 17.4031 18.1098 17.3066 18.1809 17.2354C18.2521 17.1643 18.3486 17.1243 18.4492 17.1243H39.1422C39.2428 17.1243 39.3393 17.1643 39.4105 17.2354C39.4816 17.3066 39.5216 17.4031 39.5216 17.5037C39.5216 17.6043 39.4816 17.7008 39.4105 17.7719C39.3393 17.8431 39.2428 17.8831 39.1422 17.8831H18.4492Z" fill="white"/>
<path d="M18.4492 25.5888C18.3499 25.5888 18.2546 25.5494 18.1844 25.4791C18.1142 25.4089 18.0747 25.3137 18.0747 25.2144C18.0747 25.115 18.1142 25.0198 18.1844 24.9496C18.2546 24.8794 18.3499 24.8399 18.4492 24.8399H36.7921C36.8914 24.8399 36.9866 24.8794 37.0568 24.9496C37.1271 25.0198 37.1665 25.115 37.1665 25.2144C37.1665 25.3137 37.1271 25.4089 37.0568 25.4791C36.9866 25.5494 36.8914 25.5888 36.7921 25.5888H18.4492Z" fill="white"/>
<path d="M18.4492 33.324C18.3987 33.3241 18.3488 33.3139 18.3024 33.2942C18.256 33.2744 18.214 33.2455 18.179 33.2092C18.1441 33.1728 18.1168 33.1298 18.0989 33.0826C18.0809 33.0355 18.0727 32.9852 18.0747 32.9348C18.074 32.8856 18.0833 32.8369 18.1019 32.7914C18.1206 32.746 18.1482 32.7047 18.1832 32.6702C18.2182 32.6357 18.2598 32.6086 18.3055 32.5906C18.3512 32.5725 18.4 32.5639 18.4492 32.5653H30.4117C30.5102 32.5653 30.6047 32.604 30.6748 32.6732C30.7448 32.7423 30.7849 32.8363 30.7862 32.9348C30.7875 33.0359 30.7489 33.1334 30.6788 33.2063C30.6087 33.2791 30.5128 33.3214 30.4117 33.324H18.4492Z" fill="white"/>
<path d="M18.4492 41.0347C18.4 41.036 18.3512 41.0274 18.3055 41.0094C18.2597 40.9914 18.2182 40.9642 18.1832 40.9297C18.1482 40.8952 18.1206 40.854 18.1019 40.8085C18.0833 40.7631 18.074 40.7143 18.0747 40.6652C18.074 40.6158 18.0833 40.5668 18.1019 40.5211C18.1204 40.4754 18.148 40.4338 18.1829 40.3989C18.2178 40.364 18.2594 40.3365 18.3051 40.3179C18.3508 40.2993 18.3998 40.2901 18.4492 40.2907H25.2581C25.3571 40.292 25.4516 40.3319 25.5215 40.4018C25.5915 40.4718 25.6313 40.5663 25.6326 40.6652C25.6313 40.7636 25.5913 40.8576 25.5212 40.9268C25.4511 40.9959 25.3566 41.0347 25.2581 41.0347H18.4492Z" fill="white"/>
<path d="M49.9814 20.4894L46.6902 17.213L30.5053 33.3979L33.7965 36.6842L49.9814 20.4894ZM46.9563 16.3952L50.7697 20.2283C50.838 20.299 50.8762 20.3935 50.8762 20.4919C50.8762 20.5902 50.838 20.6847 50.7697 20.7555L34.0576 37.4675C34.0107 37.5126 33.953 37.5448 33.8901 37.5612L31.0818 38.4776L28.2685 39.3841C28.1763 39.4139 28.0762 39.4063 27.9896 39.363C27.903 39.3197 27.8368 39.2442 27.8054 39.1526C27.7833 39.077 27.7833 38.9966 27.8054 38.921C28.3966 37.0438 28.9977 35.1815 29.6037 33.3191C29.6199 33.2546 29.6521 33.1953 29.6973 33.1467L46.4488 16.4198C46.5207 16.3537 46.6147 16.317 46.7124 16.317C46.81 16.317 46.9041 16.3537 46.976 16.4198L46.9563 16.3952ZM29.4017 36.3196L28.7366 38.4283L30.86 37.7632L33.0821 37.034C32.0967 36.0486 31.1113 35.0632 30.1259 34.0778L29.4017 36.3196Z" fill="white"/>
</svg>
