<svg width="58" height="58" viewBox="0 0 58 58" fill="none" xmlns="http://www.w3.org/2000/svg">
<circle cx="29" cy="29" r="29" fill="#169FDB"/>
<path d="M34.8274 39.32H22.5803C22.5229 39.3208 22.466 39.3101 22.4128 39.2885C22.3597 39.2669 22.3113 39.2348 22.2708 39.1943C22.2302 39.1537 22.1982 39.1054 22.1766 39.0522C22.155 38.999 22.1442 38.9421 22.145 38.8847C22.145 35.4834 23.8457 33.2894 26.0165 32.32C26.8598 31.9451 27.7723 31.7514 28.6952 31.7514C29.618 31.7514 30.5306 31.9451 31.3739 32.32H31.4319C33.5853 33.2894 35.2685 35.4834 35.2685 38.8847C35.267 39.0007 35.2199 39.1114 35.1373 39.1929C35.0547 39.2744 34.9434 39.32 34.8274 39.32ZM23.0215 38.4726H34.3747C34.2238 35.733 32.8365 33.9568 31.0662 33.1559H31.0256C30.2941 32.8331 29.5034 32.6665 28.7039 32.6665C27.9043 32.6665 27.1136 32.8331 26.3821 33.1559C24.5886 33.9394 23.184 35.733 23.0389 38.49L23.0215 38.4726ZM28.7039 23.4627C29.7532 23.4647 30.759 23.8821 31.5015 24.6235C32.1563 25.275 32.5645 26.1335 32.6567 27.0525C32.7488 27.9715 32.519 28.894 32.0066 29.6624C31.4942 30.4309 30.7309 30.9976 29.8471 31.2659C28.9633 31.5341 28.0138 31.4873 27.1607 31.1333C26.3077 30.7793 25.6039 30.1402 25.1697 29.325C24.7354 28.5099 24.5976 27.5692 24.7798 26.6638C24.9619 25.7583 25.4527 24.9441 26.1684 24.3603C26.8841 23.7765 27.7803 23.4592 28.7039 23.4627ZM30.8805 25.2388C30.2975 24.6656 29.5127 24.3444 28.6952 24.3444C27.8776 24.3444 27.0928 24.6656 26.5098 25.2388C26.0785 25.6708 25.785 26.2211 25.6662 26.8199C25.5475 27.4187 25.609 28.0394 25.8428 28.6033C26.0767 29.1672 26.4725 29.6492 26.9802 29.9882C27.4879 30.3273 28.0847 30.5083 28.6952 30.5083C29.3057 30.5083 29.9025 30.3273 30.4101 29.9882C30.9178 29.6492 31.3137 29.1672 31.5475 28.6033C31.7814 28.0394 31.8428 27.4187 31.7241 26.8199C31.6054 26.2211 31.3118 25.6708 30.8805 25.2388Z" fill="white"/>
<path d="M24.6825 33.8574H12.4354C12.378 33.8582 12.321 33.8474 12.2679 33.8258C12.2147 33.8042 12.1664 33.7722 12.1258 33.7316C12.0852 33.691 12.0532 33.6427 12.0316 33.5896C12.01 33.5364 11.9993 33.4794 12 33.4221C12 30.0207 13.7007 27.8267 15.8715 26.8574C16.7148 26.4825 17.6274 26.2888 18.5502 26.2888C19.4731 26.2888 20.3856 26.4825 21.2289 26.8574H21.2869C23.4403 27.8267 25.1236 30.0207 25.1236 33.4221C25.122 33.538 25.0749 33.6488 24.9923 33.7302C24.9098 33.8117 24.7985 33.8574 24.6825 33.8574ZM12.8765 33.01H24.2297C24.0788 30.2703 22.6916 28.4942 20.9213 27.6932H20.8806C20.1491 27.3705 19.3584 27.2038 18.5589 27.2038C17.7594 27.2038 16.9687 27.3705 16.2372 27.6932C14.4436 28.4768 13.039 30.2703 12.8939 33.0274L12.8765 33.01ZM18.5589 18C19.6082 18.0021 20.6141 18.4194 21.3566 19.1609C22.0113 19.8123 22.4196 20.6709 22.5117 21.5899C22.6038 22.5089 22.374 23.4314 21.8616 24.1998C21.3492 24.9682 20.5859 25.535 19.7022 25.8032C18.8184 26.0715 17.8689 26.0246 17.0158 25.6706C16.1627 25.3167 15.4589 24.6775 15.0247 23.8624C14.5905 23.0472 14.4526 22.1066 14.6348 21.2011C14.817 20.2956 15.3078 19.4815 16.0234 18.8977C16.7391 18.3139 17.6353 17.9966 18.5589 18ZM20.7355 19.7761C20.1526 19.2029 19.3678 18.8817 18.5502 18.8817C17.7327 18.8817 16.9478 19.2029 16.3649 19.7761C15.9336 20.2082 15.64 20.7584 15.5213 21.3573C15.4026 21.9561 15.464 22.5767 15.6979 23.1407C15.9317 23.7046 16.3275 24.1865 16.8352 24.5256C17.3429 24.8647 17.9397 25.0456 18.5502 25.0456C19.1607 25.0456 19.7575 24.8647 20.2652 24.5256C20.7729 24.1865 21.1687 23.7046 21.4026 23.1407C21.6364 22.5767 21.6979 21.9561 21.5792 21.3573C21.4604 20.7584 21.1668 20.2082 20.7355 19.7761Z" fill="white"/>
<path d="M44.9724 33.8574H32.7253C32.6679 33.8582 32.611 33.8474 32.5578 33.8258C32.5046 33.8042 32.4563 33.7722 32.4157 33.7316C32.3751 33.691 32.3431 33.6427 32.3215 33.5896C32.2999 33.5364 32.2892 33.4794 32.29 33.4221C32.29 30.0207 33.9906 27.8267 36.1615 26.8574C37.0047 26.4825 37.9173 26.2888 38.8401 26.2888C39.763 26.2888 40.6756 26.4825 41.5188 26.8574H41.5768C43.7302 27.8267 45.4135 30.0207 45.4135 33.4221C45.412 33.538 45.3648 33.6488 45.2823 33.7302C45.1997 33.8117 45.0884 33.8574 44.9724 33.8574ZM33.1664 33.01H44.5196C44.3687 30.2703 42.9815 28.4942 41.2112 27.6932H41.1705C40.4391 27.3705 39.6483 27.2038 38.8488 27.2038C38.0493 27.2038 37.2586 27.3705 36.5271 27.6932C34.7336 28.4768 33.329 30.2703 33.1838 33.0274L33.1664 33.01ZM38.8488 18C39.8981 18.0021 40.904 18.4194 41.6465 19.1609C42.3012 19.8123 42.7095 20.6709 42.8016 21.5899C42.8937 22.5089 42.6639 23.4314 42.1515 24.1998C41.6391 24.9682 40.8759 25.535 39.9921 25.8032C39.1083 26.0715 38.1588 26.0246 37.3057 25.6706C36.4526 25.3167 35.7489 24.6775 35.3146 23.8624C34.8804 23.0472 34.7426 22.1066 34.9247 21.2011C35.1069 20.2956 35.5977 19.4815 36.3134 18.8977C37.0291 18.3139 37.9252 17.9966 38.8488 18ZM41.0254 19.7761C40.4425 19.2029 39.6577 18.8817 38.8401 18.8817C38.0226 18.8817 37.2378 19.2029 36.6548 19.7761C36.2235 20.2082 35.9299 20.7584 35.8112 21.3573C35.6925 21.9561 35.7539 22.5767 35.9878 23.1407C36.2217 23.7046 36.6174 24.1865 37.1251 24.5256C37.6328 24.8647 38.2296 25.0456 38.8401 25.0456C39.4506 25.0456 40.0474 24.8647 40.5551 24.5256C41.0628 24.1865 41.4586 23.7046 41.6925 23.1407C41.9263 22.5767 41.9878 21.9561 41.8691 21.3573C41.7504 20.7584 41.4568 20.2082 41.0254 19.7761Z" fill="white"/>
</svg>
