<svg width="58" height="58" viewBox="0 0 58 58" fill="none" xmlns="http://www.w3.org/2000/svg">
<circle cx="29" cy="29" r="29" fill="#169FDB"/>
<path d="M10.1361 16H47.8765C48.4395 16.0098 48.9766 16.2382 49.3743 16.6368C49.7719 17.0355 49.9989 17.5731 50.0073 18.1361V40.8639C49.9989 41.4269 49.7719 41.9645 49.3743 42.3632C48.9766 42.7618 48.4395 42.9902 47.8765 43H10.1361C9.57222 42.9916 9.03376 42.7639 8.63496 42.3651C8.23616 41.9663 8.0084 41.4278 8 40.8639V18.1361C8.0084 17.5722 8.23616 17.0337 8.63496 16.6349C9.03376 16.2361 9.57222 16.0084 10.1361 16ZM47.8765 16.8187H10.1361C9.78975 16.8283 9.46018 16.9701 9.21515 17.2151C8.97012 17.4602 8.82825 17.7898 8.81868 18.1361V40.8639C8.82825 41.2102 8.97012 41.5398 9.21515 41.7849C9.46018 42.0299 9.78975 42.1718 10.1361 42.1813H47.8765C48.2228 42.173 48.5525 42.0314 48.797 41.7859C49.0414 41.5405 49.1817 41.2102 49.1886 40.8639V18.1361C49.1817 17.7898 49.0414 17.4595 48.797 17.2141C48.5525 16.9686 48.2228 16.827 47.8765 16.8187Z" fill="white"/>
<path d="M23.8801 36.9169H12.4404C12.3868 36.9177 12.3336 36.9076 12.2839 36.8875C12.2342 36.8673 12.1891 36.8374 12.1512 36.7994C12.1133 36.7615 12.0834 36.7164 12.0632 36.6668C12.043 36.6171 12.033 36.5639 12.0337 36.5103C12.0337 33.3332 13.6223 31.2838 15.65 30.3784C16.4377 30.0282 17.2901 29.8472 18.1521 29.8472C19.0141 29.8472 19.8665 30.0282 20.6542 30.3784H20.7084C22.7199 31.2838 24.2922 33.3332 24.2922 36.5103C24.2907 36.6186 24.2467 36.7221 24.1696 36.7982C24.0925 36.8743 23.9885 36.9169 23.8801 36.9169ZM12.8524 36.1254H23.4572C23.3163 33.5663 22.0205 31.9073 20.3669 31.1591H20.3289C19.6456 30.8577 18.907 30.702 18.1602 30.702C17.4134 30.702 16.6748 30.8577 15.9916 31.1591C14.3163 31.891 13.0042 33.5663 12.8687 36.1416L12.8524 36.1254ZM18.1602 22.1049C19.1404 22.1068 20.0799 22.4966 20.7735 23.1892C21.385 23.7977 21.7664 24.5997 21.8525 25.4581C21.9385 26.3165 21.7239 27.1782 21.2452 27.896C20.7666 28.6138 20.0537 29.1431 19.2281 29.3937C18.4026 29.6443 17.5157 29.6005 16.7188 29.2698C15.922 28.9392 15.2646 28.3422 14.859 27.5808C14.4534 26.8194 14.3246 25.9407 14.4948 25.095C14.6649 24.2492 15.1234 23.4887 15.7919 22.9434C16.4604 22.398 17.2975 22.1017 18.1602 22.1049ZM20.1934 23.7639C19.6488 23.2285 18.9158 22.9285 18.1521 22.9285C17.3885 22.9285 16.6554 23.2285 16.1108 23.7639C15.708 24.1675 15.4337 24.6814 15.3228 25.2408C15.2119 25.8002 15.2694 26.3799 15.4878 26.9066C15.7063 27.4334 16.0759 27.8836 16.5502 28.2003C17.0244 28.517 17.5819 28.6861 18.1521 28.6861C18.7224 28.6861 19.2798 28.517 19.754 28.2003C20.2283 27.8836 20.598 27.4334 20.8164 26.9066C21.0349 26.3799 21.0923 25.8002 20.9814 25.2408C20.8705 24.6814 20.5963 24.1675 20.1934 23.7639Z" fill="white"/>
<path d="M28.3042 25.2386C28.1935 25.2386 28.0873 25.1946 28.009 25.1163C27.9307 25.038 27.8868 24.9318 27.8868 24.8211C27.8868 24.7104 27.9307 24.6042 28.009 24.5259C28.0873 24.4476 28.1935 24.4036 28.3042 24.4036H45.5886C45.6993 24.4036 45.8055 24.4476 45.8838 24.5259C45.9621 24.6042 46.0061 24.7104 46.0061 24.8211C46.0061 24.9318 45.9621 25.038 45.8838 25.1163C45.8055 25.1946 45.6993 25.2386 45.5886 25.2386H28.3042Z" fill="white"/>
<path d="M28.3042 30.4651C28.1959 30.4637 28.0925 30.4196 28.0164 30.3425C27.9403 30.2654 27.8976 30.1614 27.8976 30.053C27.8969 29.9994 27.9069 29.9462 27.9271 29.8966C27.9473 29.8469 27.9772 29.8018 28.0151 29.7639C28.053 29.726 28.0981 29.696 28.1478 29.6759C28.1975 29.6557 28.2506 29.6457 28.3042 29.6464H40.5681C40.6217 29.6457 40.6749 29.6557 40.7246 29.6759C40.7743 29.696 40.8193 29.726 40.8573 29.7639C40.8952 29.8018 40.9251 29.8469 40.9453 29.8966C40.9655 29.9462 40.9755 29.9994 40.9747 30.053C40.9747 30.1614 40.9321 30.2654 40.856 30.3425C40.7799 30.4196 40.6764 30.4637 40.5681 30.4651H28.3042Z" fill="white"/>
<path d="M28.3043 34.5801C28.2502 34.5809 28.1965 34.5707 28.1465 34.5502C28.0965 34.5297 28.0511 34.4993 28.0131 34.4608C27.9751 34.4223 27.9453 34.3765 27.9255 34.3262C27.9057 34.2759 27.8962 34.2222 27.8976 34.1681C27.899 34.0607 27.9423 33.9581 28.0183 33.8821C28.0942 33.8062 28.1969 33.7629 28.3043 33.7615H35.7482C35.8566 33.7615 35.9606 33.8041 36.0377 33.8802C36.1148 33.9563 36.1589 34.0598 36.1603 34.1681C36.161 34.2224 36.1509 34.2763 36.1304 34.3266C36.11 34.377 36.0796 34.4227 36.0412 34.4611C36.0028 34.4995 35.9571 34.5298 35.9068 34.5503C35.8565 34.5707 35.8025 34.5809 35.7482 34.5801H28.3043Z" fill="white"/>
</svg>
