<svg width="58" height="58" viewBox="0 0 58 58" fill="none" xmlns="http://www.w3.org/2000/svg">
<circle cx="29" cy="29" r="29" fill="#169FDB"/>
<path d="M13 14.3201C13 14.2429 13.0307 14.1689 13.0852 14.1144C13.1398 14.0598 13.2138 14.0291 13.291 14.0291C13.3682 14.0291 13.4422 14.0598 13.4968 14.1144C13.5514 14.1689 13.5821 14.2429 13.5821 14.3201V33.3695C13.5821 33.4467 13.5514 33.5207 13.4968 33.5753C13.4422 33.6299 13.3682 33.6606 13.291 33.6606C13.2138 33.6606 13.1398 33.6299 13.0852 33.5753C13.0307 33.5207 13 33.4467 13 33.3695V14.3201ZM13 34.4278C13 34.3506 13.0307 34.2766 13.0852 34.222C13.1398 34.1674 13.2138 34.1368 13.291 34.1368C13.3682 34.1368 13.4422 34.1674 13.4968 34.222C13.5514 34.2766 13.5821 34.3506 13.5821 34.4278V36.3176C13.5821 36.3948 13.5514 36.4688 13.4968 36.5234C13.4422 36.578 13.3682 36.6087 13.291 36.6087C13.2138 36.6087 13.1398 36.578 13.0852 36.5234C13.0307 36.4688 13 36.3948 13 36.3176V34.4278Z" fill="white"/>
<path d="M16.5944 14.3201C16.5934 14.2426 16.623 14.1678 16.6768 14.1119C16.7305 14.056 16.8042 14.0235 16.8817 14.0215C16.9204 14.0215 16.9587 14.0293 16.9943 14.0445C17.0299 14.0596 17.0621 14.0818 17.0889 14.1096C17.1157 14.1375 17.1367 14.1706 17.1504 14.2067C17.1642 14.2429 17.1705 14.2815 17.1689 14.3201V33.3695C17.1695 33.4072 17.1624 33.4446 17.1481 33.4795C17.1338 33.5144 17.1126 33.546 17.0857 33.5725C17.0589 33.599 17.027 33.6197 16.9919 33.6336C16.9569 33.6474 16.9194 33.654 16.8817 33.653C16.8062 33.653 16.7337 33.6232 16.6799 33.5702C16.6261 33.5171 16.5954 33.445 16.5944 33.3695V14.3201ZM16.5944 34.4278C16.5954 34.3519 16.626 34.2794 16.6796 34.2258C16.7333 34.1721 16.8058 34.1415 16.8817 34.1406C16.9196 34.14 16.9571 34.1471 16.9922 34.1614C17.0273 34.1756 17.0592 34.1968 17.0859 34.2236C17.1127 34.2503 17.1339 34.2822 17.1481 34.3173C17.1624 34.3524 17.1695 34.3899 17.1689 34.4278V36.3176C17.1695 36.3553 17.1624 36.3927 17.1481 36.4276C17.1338 36.4625 17.1126 36.4941 17.0857 36.5206C17.0589 36.5471 17.027 36.5678 16.9919 36.5817C16.9569 36.5955 16.9194 36.6021 16.8817 36.6011C16.8062 36.6011 16.7337 36.5714 16.6799 36.5183C16.6261 36.4652 16.5954 36.3932 16.5944 36.3176V34.4278Z" fill="white"/>
<path d="M20.1889 14.3201C20.1878 14.2426 20.2174 14.1678 20.2712 14.1119C20.325 14.056 20.3986 14.0235 20.4761 14.0215C20.5148 14.0215 20.5531 14.0293 20.5887 14.0445C20.6243 14.0596 20.6565 14.0818 20.6834 14.1096C20.7102 14.1375 20.7311 14.1706 20.7448 14.2067C20.7586 14.2429 20.7649 14.2815 20.7634 14.3201V33.3695C20.7639 33.4072 20.7568 33.4446 20.7425 33.4795C20.7282 33.5144 20.707 33.546 20.6802 33.5725C20.6533 33.599 20.6214 33.6197 20.5864 33.6336C20.5513 33.6474 20.5138 33.654 20.4761 33.653C20.4006 33.653 20.3281 33.6232 20.2743 33.5702C20.2206 33.5171 20.1899 33.445 20.1889 33.3695V14.3201ZM20.1889 34.4278C20.1898 34.3519 20.2204 34.2794 20.2741 34.2258C20.3277 34.1721 20.4002 34.1415 20.4761 34.1406C20.514 34.14 20.5516 34.1471 20.5866 34.1614C20.6217 34.1756 20.6536 34.1968 20.6804 34.2236C20.7071 34.2503 20.7283 34.2822 20.7425 34.3173C20.7568 34.3524 20.7639 34.3899 20.7634 34.4278V36.3176C20.7639 36.3553 20.7568 36.3927 20.7425 36.4276C20.7282 36.4625 20.707 36.4941 20.6802 36.5206C20.6533 36.5471 20.6214 36.5678 20.5864 36.5817C20.5513 36.5955 20.5138 36.6021 20.4761 36.6011C20.4006 36.6011 20.3281 36.5714 20.2743 36.5183C20.2206 36.4652 20.1899 36.3932 20.1889 36.3176V34.4278Z" fill="white"/>
<path d="M23.7871 14.3201C23.7861 14.2819 23.7926 14.2439 23.8063 14.2082C23.82 14.1725 23.8406 14.1398 23.8669 14.1121C23.8933 14.0844 23.9248 14.0621 23.9597 14.0466C23.9947 14.031 24.0323 14.0225 24.0706 14.0215C24.1092 14.0215 24.1476 14.0293 24.1832 14.0445C24.2188 14.0596 24.251 14.0818 24.2778 14.1096C24.3046 14.1375 24.3255 14.1706 24.3393 14.2067C24.353 14.2429 24.3593 14.2815 24.3578 14.3201V31.2983C24.3589 31.3361 24.3521 31.3738 24.338 31.4089C24.3239 31.444 24.3028 31.4759 24.2758 31.5025C24.2489 31.5291 24.2167 31.5498 24.1814 31.5634C24.1461 31.5771 24.1084 31.5833 24.0706 31.5818C24.0332 31.5823 23.9961 31.5753 23.9615 31.5612C23.9269 31.5471 23.8954 31.5263 23.869 31.4999C23.8426 31.4734 23.8217 31.442 23.8076 31.4073C23.7936 31.3727 23.7866 31.3356 23.7871 31.2983V14.3201ZM23.7871 34.4278C23.7871 34.3523 23.8168 34.2798 23.8699 34.226C23.9229 34.1723 23.995 34.1415 24.0706 34.1406C24.1084 34.14 24.146 34.1471 24.1811 34.1614C24.2162 34.1756 24.248 34.1968 24.2748 34.2236C24.3016 34.2503 24.3227 34.2822 24.337 34.3173C24.3512 34.3524 24.3583 34.3899 24.3578 34.4278V36.3176C24.3583 36.3553 24.3512 36.3927 24.3369 36.4276C24.3226 36.4625 24.3014 36.4941 24.2746 36.5206C24.2478 36.5471 24.2159 36.5678 24.1808 36.5817C24.1457 36.5955 24.1082 36.6021 24.0706 36.6011C23.9957 36.6001 23.9241 36.5699 23.8712 36.517C23.8182 36.464 23.7881 36.3925 23.7871 36.3176V34.4278Z" fill="white"/>
<path d="M27.3929 14.3201C27.3882 14.2799 27.3921 14.2391 27.4044 14.2005C27.4166 14.1619 27.4368 14.1263 27.4638 14.0961C27.4907 14.0659 27.5238 14.0417 27.5607 14.0251C27.5977 14.0086 27.6377 14 27.6782 14C27.7187 14 27.7588 14.0086 27.7957 14.0251C27.8327 14.0417 27.8657 14.0659 27.8926 14.0961C27.9196 14.1263 27.9399 14.1619 27.9521 14.2005C27.9643 14.2391 27.9682 14.2799 27.9636 14.3201V26.2865C27.9555 26.3565 27.922 26.4211 27.8693 26.468C27.8167 26.5149 27.7487 26.5408 27.6782 26.5408C27.6077 26.5408 27.5397 26.5149 27.4871 26.468C27.4345 26.4211 27.4009 26.3565 27.3929 26.2865V14.3201Z" fill="white"/>
<path d="M30.9759 14.3201C30.9749 14.2426 31.0045 14.1678 31.0583 14.1119C31.112 14.056 31.1857 14.0235 31.2632 14.0215C31.3014 14.0225 31.3391 14.031 31.374 14.0466C31.409 14.0621 31.4405 14.0844 31.4668 14.1121C31.4931 14.1398 31.5137 14.1725 31.5274 14.2082C31.5411 14.2439 31.5477 14.2819 31.5467 14.3201V25.3453C31.5457 25.4202 31.5155 25.4918 31.4626 25.5447C31.4096 25.5977 31.3381 25.6278 31.2632 25.6288C31.1877 25.6288 31.1152 25.5991 31.0614 25.546C31.0077 25.493 30.9769 25.4209 30.9759 25.3453V14.3201Z" fill="white"/>
<path d="M34.5742 14.3201C34.5731 14.2426 34.6027 14.1678 34.6565 14.1119C34.7103 14.056 34.7839 14.0235 34.8614 14.0215C34.8996 14.0225 34.9373 14.031 34.9722 14.0466C35.0072 14.0621 35.0387 14.0844 35.065 14.1121C35.0914 14.1398 35.112 14.1725 35.1257 14.2082C35.1394 14.2439 35.1459 14.2819 35.1449 14.3201V26.2865C35.1454 26.3238 35.1384 26.3609 35.1243 26.3955C35.1103 26.4302 35.0894 26.4616 35.063 26.4881C35.0366 26.5145 35.0051 26.5353 34.9705 26.5494C34.9359 26.5635 34.8988 26.5705 34.8614 26.5699C34.8237 26.571 34.7862 26.5644 34.7512 26.5505C34.7161 26.5367 34.6842 26.5159 34.6574 26.4894C34.6305 26.463 34.6093 26.4313 34.595 26.3964C34.5807 26.3616 34.5736 26.3242 34.5742 26.2865V14.3201Z" fill="white"/>
<path d="M25.9037 27.2729C27.3339 25.8665 29.2624 25.0828 31.2683 25.0927C33.2741 25.1027 35.1947 25.9056 36.6108 27.3263C38.027 28.7469 38.8238 30.67 38.8275 32.6759C38.8311 34.6818 38.0413 36.6078 36.6303 38.0336H36.6076C35.1807 39.456 33.2471 40.2533 31.2323 40.2501C29.2175 40.247 27.2864 39.4435 25.864 38.0166C24.4415 36.5896 23.6442 34.656 23.6474 32.6412C23.6506 30.6264 24.4541 28.6954 25.881 27.2729H25.9037ZM31.2632 25.6401C29.4108 25.6299 27.6295 26.3527 26.3081 27.6509V27.6736C25.3275 28.6564 24.6601 29.9077 24.39 31.2695C24.12 32.6314 24.2594 34.0427 24.7908 35.3253C25.3221 36.608 26.2215 37.7045 27.3755 38.4764C28.5294 39.2483 29.8862 39.6611 31.2746 39.6626C33.1306 39.6593 34.9101 38.923 36.2259 37.614C37.2062 36.6314 37.8736 35.3805 38.1438 34.019C38.4139 32.6575 38.2748 31.2465 37.7439 29.964C37.2131 28.6815 36.3142 27.585 35.1609 26.8128C34.0075 26.0406 32.6512 25.6273 31.2632 25.625V25.6401Z" fill="white"/>
<path d="M37.322 36.8203L40.0244 39.5228C40.0751 39.5779 40.1033 39.6501 40.1033 39.725C40.1033 39.7999 40.0751 39.8721 40.0244 39.9272C39.9914 39.9579 39.9516 39.9804 39.9082 39.9929C39.8649 40.0054 39.8193 40.0074 39.775 39.999C39.707 39.9933 39.6388 39.9933 39.5708 39.999C39.3257 40.0228 39.0955 40.1279 38.917 40.2976C38.745 40.4759 38.6362 40.7055 38.607 40.9515V41.1782C38.6123 41.2152 38.61 41.2528 38.6001 41.2888C38.5902 41.3248 38.573 41.3583 38.5496 41.3874C38.5262 41.4165 38.4971 41.4404 38.4641 41.4577C38.4311 41.4751 38.3948 41.4854 38.3576 41.4882C38.3142 41.4936 38.2701 41.489 38.2288 41.4745C38.1875 41.4601 38.1501 41.4363 38.1195 41.405L35.417 38.7026C35.3646 38.6483 35.3353 38.5758 35.3353 38.5004C35.3353 38.4249 35.3646 38.3524 35.417 38.2982L35.4624 38.2604C35.7289 38.0598 35.9815 37.8414 36.2183 37.6065C36.4592 37.372 36.6816 37.1193 36.8835 36.8506C36.9281 36.7957 36.9916 36.7594 37.0615 36.7489C37.1315 36.7384 37.2028 36.7545 37.2615 36.7939L37.322 36.8203ZM39.1891 39.5001L37.1405 37.4515C36.9742 37.6518 36.8079 37.8295 36.6303 38.0222C36.4519 38.2051 36.2612 38.3756 36.0596 38.5325L38.1081 40.5811C38.1918 40.3287 38.3299 40.0977 38.5125 39.9045C38.7067 39.7231 38.9374 39.5852 39.1891 39.5001Z" fill="white"/>
<path d="M38.5125 39.9158C38.6637 39.7604 38.8448 39.637 39.0448 39.5532C39.2449 39.4695 39.4598 39.4269 39.6767 39.4283C39.8949 39.426 40.1115 39.4669 40.3138 39.5486C40.5162 39.6304 40.7005 39.7513 40.8559 39.9045L45.5124 44.5686C45.8222 44.8786 45.9973 45.2982 46 45.7365C45.998 46.1749 45.823 46.5949 45.5129 46.9049C45.2029 47.2149 44.783 47.39 44.3445 47.392C43.9062 47.3893 43.4867 47.2141 43.1766 46.9044L38.5125 42.2479C38.2058 41.9383 38.0345 41.5196 38.0363 41.0837C38.0341 40.8672 38.075 40.6524 38.1568 40.4518C38.2386 40.2513 38.3595 40.0691 38.5125 39.9158ZM39.6767 39.999C39.5352 40 39.3953 40.0288 39.265 40.0839C39.1347 40.1389 39.0165 40.2191 38.9172 40.3198C38.8179 40.4206 38.7393 40.5399 38.6861 40.6709C38.6329 40.802 38.606 40.9423 38.607 41.0837C38.6098 41.3661 38.7208 41.6366 38.917 41.8397L43.581 46.4962C43.7816 46.6975 44.0528 46.8128 44.337 46.8175C44.6216 46.8148 44.8935 46.6993 45.0929 46.4962C45.1946 46.3983 45.2755 46.2809 45.3307 46.151C45.3859 46.0211 45.4143 45.8814 45.4142 45.7403C45.4095 45.4561 45.2943 45.1849 45.0929 44.9843L40.425 40.3316C40.3276 40.2293 40.2103 40.1481 40.0803 40.0928C39.9503 40.0376 39.8104 40.0095 39.6691 40.0103L39.6767 39.999Z" fill="white"/>
<path d="M27.597 28.6298C27.597 28.5543 27.6267 28.4818 27.6798 28.428C27.7328 28.3743 27.8049 28.3436 27.8804 28.3426C27.9563 28.3436 28.0288 28.3741 28.0825 28.4278C28.1361 28.4815 28.1667 28.554 28.1677 28.6298V36.6653C28.1682 36.7032 28.1611 36.7408 28.1469 36.7759C28.1326 36.8109 28.1115 36.8428 28.0847 36.8696C28.0579 36.8964 28.026 36.9175 27.991 36.9318C27.9559 36.946 27.9183 36.9531 27.8804 36.9526C27.8427 36.9531 27.8053 36.946 27.7705 36.9317C27.7356 36.9174 27.704 36.8962 27.6775 36.8694C27.651 36.8426 27.6302 36.8106 27.6164 36.7756C27.6026 36.7405 27.5959 36.703 27.597 36.6653V28.6298Z" fill="white"/>
<path d="M30.9646 28.6299C30.9651 28.5913 30.9732 28.5533 30.9886 28.5179C31.0039 28.4825 31.0261 28.4506 31.0539 28.4238C31.0816 28.3971 31.1145 28.3762 31.1504 28.3622C31.1863 28.3483 31.2247 28.3416 31.2632 28.3426C31.3387 28.3436 31.4108 28.3743 31.4639 28.4281C31.5169 28.4818 31.5467 28.5544 31.5467 28.6299V36.6654C31.5477 36.7031 31.5411 36.7406 31.5273 36.7756C31.5134 36.8107 31.4926 36.8426 31.4662 36.8694C31.4397 36.8963 31.4081 36.9175 31.3732 36.9318C31.3383 36.9461 31.3009 36.9532 31.2632 36.9526C31.2244 36.9547 31.1856 36.9488 31.1492 36.9352C31.1128 36.9217 31.0795 36.9008 31.0515 36.8738C31.0235 36.8469 31.0014 36.8145 30.9864 36.7786C30.9715 36.7428 30.964 36.7042 30.9646 36.6654V28.6299Z" fill="white"/>
<path d="M34.3436 28.6299C34.3446 28.554 34.3752 28.4815 34.4288 28.4278C34.4825 28.3742 34.555 28.3436 34.6309 28.3426C34.6687 28.3421 34.7063 28.3492 34.7414 28.3634C34.7765 28.3777 34.8083 28.3988 34.8351 28.4256C34.8619 28.4524 34.883 28.4843 34.8973 28.5193C34.9115 28.5544 34.9186 28.592 34.9181 28.6299V36.6654C34.9191 36.7034 34.9124 36.7412 34.8984 36.7765C34.8843 36.8118 34.8632 36.8439 34.8363 36.8708C34.8094 36.8977 34.7773 36.9188 34.742 36.9329C34.7067 36.9469 34.6689 36.9537 34.6309 36.9526C34.593 36.9531 34.5554 36.946 34.5203 36.9318C34.4853 36.9175 34.4534 36.8964 34.4266 36.8696C34.3998 36.8428 34.3787 36.811 34.3644 36.7759C34.3502 36.7408 34.3431 36.7032 34.3436 36.6654V28.6299Z" fill="white"/>
</svg>
