<svg width="58" height="58" viewBox="0 0 58 58" fill="none" xmlns="http://www.w3.org/2000/svg">
<circle cx="29" cy="29" r="29" fill="#169FDB"/>
<path d="M11.4001 36.4511H45.9976C46.1844 36.4524 46.3691 36.4911 46.5407 36.5649C46.7124 36.6387 46.8675 36.7461 46.997 36.8808C47.2593 37.1478 47.4081 37.5059 47.4122 37.8802V43.191C47.4109 43.3778 47.3722 43.5625 47.2984 43.7341C47.2246 43.9058 47.1172 44.0609 46.9825 44.1904C46.8521 44.3229 46.6965 44.4279 46.5249 44.4992C46.3532 44.5705 46.169 44.6067 45.9831 44.6056H11.4001C11.2157 44.6068 11.0329 44.5706 10.8628 44.4993C10.6927 44.4279 10.5388 44.3228 10.4104 44.1904C10.151 43.9357 10.0034 43.5883 10 43.2248V37.914C10.0028 37.5404 10.1498 37.1823 10.4104 36.9146C10.6757 36.6563 11.0299 36.5095 11.4001 36.5042V36.4511ZM45.9976 37.2139H11.4001C11.2289 37.2187 11.0662 37.2896 10.9463 37.4119C10.8827 37.4751 10.8325 37.5503 10.7985 37.6333C10.7645 37.7162 10.7474 37.8051 10.7483 37.8947V43.2055C10.7494 43.2905 10.7674 43.3745 10.8014 43.4524C10.8354 43.5304 10.8847 43.6007 10.9463 43.6593C11.0662 43.7816 11.2289 43.8525 11.4001 43.8573H45.9976C46.1756 43.8575 46.3475 43.7922 46.4804 43.6738C46.542 43.6152 46.5913 43.5448 46.6252 43.4669C46.6592 43.389 46.6773 43.305 46.6783 43.22V37.9092C46.6793 37.8195 46.6622 37.7307 46.6282 37.6477C46.5942 37.5648 46.544 37.4895 46.4804 37.4264C46.4172 37.3628 46.3419 37.3125 46.259 37.2786C46.1761 37.2446 46.0872 37.2275 45.9976 37.2284V37.2139Z" fill="white"/>
<path d="M17.4834 11.0124H20.9499C20.9983 11.0117 21.0463 11.0208 21.0911 11.039C21.1359 11.0572 21.1766 11.0842 21.2108 11.1184C21.245 11.1526 21.272 11.1933 21.2902 11.2381C21.3084 11.2829 21.3175 11.3309 21.3168 11.3793V24.7287H24.1895C24.2864 24.73 24.379 24.769 24.4476 24.8376C24.5161 24.9061 24.5552 24.9987 24.5564 25.0956C24.5616 25.1672 24.5392 25.2381 24.4936 25.2936L19.5498 33.8681C19.5272 33.9089 19.4967 33.9448 19.4601 33.9737C19.4235 34.0026 19.3815 34.024 19.3366 34.0366C19.2917 34.0491 19.2447 34.0527 19.1985 34.047C19.1522 34.0413 19.1075 34.0264 19.067 34.0033C19.0097 33.9724 18.9627 33.9254 18.9318 33.8681L13.9589 25.2791C13.9282 25.223 13.9125 25.16 13.9132 25.0961C13.9139 25.0321 13.9312 24.9695 13.9632 24.9141C13.9952 24.8588 14.041 24.8127 14.0961 24.7802C14.1511 24.7477 14.2137 24.73 14.2776 24.7287H17.1406V11.3793C17.1406 11.2828 17.1786 11.1902 17.2464 11.1215C17.3141 11.0528 17.4062 11.0136 17.5027 11.0124H17.4834ZM20.5878 11.7414H17.8648V25.0956C17.8636 25.1445 17.8527 25.1926 17.8328 25.2372C17.813 25.2818 17.7845 25.3221 17.7491 25.3557C17.7137 25.3894 17.672 25.4157 17.6264 25.4332C17.5808 25.4507 17.5322 25.459 17.4834 25.4577H14.9004L19.2166 32.9556L23.5618 25.4577H20.9596C20.8639 25.4565 20.7725 25.4179 20.7049 25.3503C20.6373 25.2827 20.5987 25.1913 20.5975 25.0956L20.5878 11.7414Z" fill="white"/>
<path d="M36.7954 33.3226H39.5184V19.9828C39.5178 19.934 39.5268 19.8855 39.5449 19.8401C39.563 19.7948 39.5898 19.7534 39.6239 19.7185C39.658 19.6835 39.6986 19.6556 39.7434 19.6363C39.7883 19.6171 39.8365 19.6068 39.8853 19.6062H42.4828L38.1376 12.1083L33.8214 19.6062H36.4237C36.4723 19.6068 36.5203 19.6171 36.5649 19.6364C36.6095 19.6557 36.6498 19.6837 36.6835 19.7188C36.7172 19.7538 36.7435 19.7952 36.7611 19.8405C36.7787 19.8858 36.7871 19.9342 36.7858 19.9828L36.7954 33.3226ZM39.8853 34.0661H36.4333C36.3831 34.0667 36.3332 34.0573 36.2866 34.0384C36.24 34.0194 36.1977 33.9913 36.1622 33.9558C36.1266 33.9203 36.0986 33.8779 36.0796 33.8314C36.0607 33.7848 36.0513 33.7349 36.0519 33.6847V20.3497H33.1937C33.127 20.3517 33.0618 20.3294 33.0103 20.2869C32.9289 20.2403 32.8691 20.1636 32.8438 20.0732C32.8185 19.9829 32.8297 19.8863 32.8751 19.8041L37.8576 11.1765C37.8863 11.1208 37.9297 11.0741 37.9831 11.0413C38.0657 10.9984 38.1616 10.9885 38.2512 11.0136C38.3409 11.0387 38.4176 11.0969 38.4659 11.1765L43.4194 19.751C43.4569 19.8067 43.4786 19.8714 43.4823 19.9384C43.4859 20.0054 43.4714 20.0721 43.4402 20.1315C43.409 20.1909 43.3624 20.2407 43.3052 20.2757C43.248 20.3108 43.1824 20.3296 43.1153 20.3304H40.2571V33.6653C40.2578 33.7152 40.2485 33.7647 40.2298 33.8109C40.2112 33.8572 40.1836 33.8993 40.1485 33.9348C40.1135 33.9702 40.0718 33.9984 40.0258 34.0176C39.9798 34.0369 39.9304 34.0468 39.8805 34.0468L39.8853 34.0661Z" fill="white"/>
</svg>
