<svg width="58" height="58" viewBox="0 0 58 58" fill="none" xmlns="http://www.w3.org/2000/svg">
<circle cx="29" cy="29" r="29" fill="#169FDB"/>
<path d="M28.7882 8.16545C30.4106 10.8797 32.6378 13.1827 35.2963 14.8949C37.8843 16.4482 40.744 17.4954 43.7231 17.9806C43.8028 17.9959 43.8745 18.0392 43.9252 18.1026C43.9759 18.166 44.0024 18.2454 43.9998 18.3265V28.1924C43.9998 40.3922 40.4852 41.8312 35.9374 43.69C33.6865 44.6125 31.1728 45.6226 28.7467 48.224C28.7148 48.2574 28.6765 48.2839 28.6341 48.302C28.5917 48.3202 28.546 48.3295 28.4999 48.3295C28.4538 48.3295 28.4081 48.3202 28.3657 48.302C28.3233 48.2839 28.285 48.2574 28.2531 48.224C25.827 45.6226 23.3317 44.6079 21.0809 43.69C16.5331 41.8451 13 40.3922 13 28.1924V18.3358C12.9998 18.2479 13.0331 18.1632 13.093 18.099C13.153 18.0347 13.2352 17.9957 13.3229 17.9898C16.2882 17.4856 19.1344 16.4362 21.7174 14.8949C24.3758 13.187 26.5994 10.8829 28.2116 8.16545C28.2636 8.08684 28.3437 8.03112 28.4355 8.00968C28.5272 7.98824 28.6237 8.0027 28.7052 8.05014C28.7462 8.0816 28.7807 8.12077 28.8066 8.16545H28.7882ZM34.918 15.4761C32.3312 13.8194 30.1395 11.6151 28.4976 9.01876C26.8547 11.6189 24.6576 13.8239 22.0633 15.4761C19.4909 17.04 16.6483 18.1085 13.6826 18.6264V28.2016C13.6826 39.9402 17.022 41.2916 21.3207 43.0489C23.5577 43.9714 26.0438 44.9815 28.4976 47.4906C30.9376 44.9815 33.4375 43.9622 35.6745 43.0489C39.9732 41.2916 43.3034 39.9402 43.3034 28.2016V18.6264C40.3362 18.1086 37.4922 17.0401 34.918 15.4761Z" fill="white"/>
<path d="M28.4976 18.9308C30.6379 18.9224 32.715 19.6563 34.375 21.0074C36.0349 22.3586 37.1751 24.2435 37.6012 26.341C38.0274 28.4385 37.7132 30.6189 36.7121 32.5107C35.711 34.4025 34.085 35.8887 32.111 36.7162C30.1371 37.5437 27.9373 37.6612 25.8865 37.0487C23.8356 36.4363 22.0605 35.1317 20.8636 33.3573C19.6667 31.5829 19.1219 29.4485 19.3222 27.3175C19.5224 25.1865 20.4553 23.1909 21.9619 21.6706C22.8188 20.8097 23.8372 20.1266 24.9588 19.6604C26.0804 19.1942 27.283 18.9541 28.4976 18.9539V18.9308ZM34.526 22.1595C33.3323 20.9673 31.8122 20.1556 30.1575 19.8266C28.5029 19.4977 26.7879 19.6664 25.229 20.3114C23.6701 20.9563 22.3373 22.0487 21.3987 23.4505C20.4602 24.8523 19.9579 26.5008 19.9555 28.1879C19.9178 29.332 20.1107 30.4721 20.5226 31.5402C20.9345 32.6083 21.557 33.5827 22.353 34.4054C23.1491 35.228 24.1025 35.8822 25.1565 36.329C26.2105 36.7757 27.3436 37.006 28.4884 37.006C29.6332 37.006 30.7662 36.7757 31.8203 36.329C32.8743 35.8822 33.8276 35.228 34.6237 34.4054C35.4198 33.5827 36.0423 32.6083 36.4542 31.5402C36.8661 30.4721 37.0589 29.332 37.0213 28.1879C37.0291 27.0632 36.8124 25.9482 36.3839 24.9083C35.9555 23.8685 35.3238 22.9245 34.526 22.1318V22.1595Z" fill="white"/>
<path d="M22.3816 29.2625C22.3556 29.2208 22.3388 29.1741 22.332 29.1255C22.3253 29.0768 22.3288 29.0273 22.3425 28.9801C22.3561 28.9329 22.3795 28.8891 22.4112 28.8515C22.4428 28.814 22.482 28.7835 22.5262 28.762C22.5704 28.7406 22.6186 28.7287 22.6677 28.727C22.7168 28.7254 22.7657 28.7341 22.8112 28.7526C22.8567 28.7711 22.8978 28.799 22.9319 28.8344C22.9659 28.8698 22.9922 28.9119 23.0089 28.9581L24.4618 31.9792L34.0786 23.5524C34.144 23.4962 34.2287 23.4677 34.3148 23.4729C34.4009 23.4781 34.4816 23.5165 34.5398 23.5801C34.5706 23.6144 34.5942 23.6545 34.6093 23.698C34.6243 23.7416 34.6305 23.7877 34.6275 23.8336C34.6245 23.8796 34.6123 23.9245 34.5917 23.9657C34.5711 24.0069 34.5425 24.0436 34.5075 24.0736L24.5863 32.791C24.555 32.815 24.521 32.8351 24.4848 32.851C24.4023 32.8906 24.3073 32.8959 24.2208 32.8656C24.1344 32.8354 24.0634 32.772 24.0236 32.6895L22.3816 29.2625Z" fill="white"/>
<path d="M41.5184 20.6743C41.5127 20.6239 41.5176 20.5729 41.533 20.5246C41.5483 20.4763 41.5737 20.4318 41.6075 20.394C41.6412 20.3562 41.6826 20.3259 41.7288 20.3052C41.7751 20.2845 41.8252 20.2738 41.8758 20.2738C41.9265 20.2738 41.9766 20.2845 42.0229 20.3052C42.0691 20.3259 42.1105 20.3562 42.1442 20.394C42.178 20.4318 42.2034 20.4763 42.2187 20.5246C42.2341 20.5729 42.239 20.6239 42.2333 20.6743V33.1277C42.2233 33.2155 42.1814 33.2965 42.1154 33.3554C42.0495 33.4142 41.9642 33.4468 41.8758 33.4468C41.7875 33.4468 41.7022 33.4142 41.6363 33.3554C41.5703 33.2965 41.5284 33.2155 41.5184 33.1277V20.6743Z" fill="white"/>
<path d="M39.2629 25.4112C39.2641 25.3186 39.3014 25.2301 39.3669 25.1646C39.4324 25.0991 39.5209 25.0618 39.6135 25.0606C39.7056 25.0618 39.7936 25.0993 39.8583 25.1649C39.9231 25.2305 39.9594 25.319 39.9594 25.4112V33.1092C39.9594 33.2014 39.9231 33.2899 39.8583 33.3555C39.7936 33.4211 39.7056 33.4586 39.6135 33.4598C39.5209 33.4586 39.4324 33.4213 39.3669 33.3558C39.3014 33.2903 39.2641 33.2018 39.2629 33.1092V25.4112Z" fill="white"/>
</svg>
