<svg width="58" height="58" viewBox="0 0 58 58" fill="none" xmlns="http://www.w3.org/2000/svg">
<circle cx="29" cy="29" r="29" fill="#169FDB"/>
<path d="M14.1566 11.0086H37.3299C37.9119 11.0135 38.4689 11.2458 38.8819 11.656C39.2885 12.065 39.5166 12.6184 39.5164 13.1951V26.5503C39.517 26.5946 39.5088 26.6385 39.4922 26.6796C39.4757 26.7207 39.4511 26.758 39.42 26.7895C39.3889 26.8211 39.3518 26.8461 39.311 26.8631C39.2701 26.8802 39.2263 26.889 39.182 26.889L38.6418 26.8504H38.1402C36.7941 26.8487 35.4609 27.1126 34.2169 27.6269C32.9729 28.1413 31.8427 28.896 30.8908 29.8479C29.939 30.7997 29.1843 31.93 28.6699 33.1739C28.1556 34.4179 27.8917 35.7511 27.8934 37.0972C27.8924 38.2937 28.0969 39.4814 28.4979 40.6086C28.9171 41.7334 29.5245 42.7787 30.2943 43.6998C30.324 43.7331 30.3466 43.7721 30.3608 43.8145C30.3749 43.8568 30.3804 43.9015 30.3768 43.946C30.3732 43.9905 30.3606 44.0338 30.3398 44.0733C30.319 44.1127 30.2904 44.1476 30.2557 44.1757C30.1947 44.2274 30.1169 44.2548 30.037 44.2529H14.1738C13.5932 44.2532 13.0358 44.0253 12.6217 43.6183V43.5926C12.4225 43.3918 12.2651 43.1535 12.1584 42.8916C12.0517 42.6296 11.9979 42.3491 12.0001 42.0663V13.1866C12.0017 12.6102 12.2296 12.0575 12.6346 11.6474C13.0484 11.2384 13.6049 11.0063 14.1866 11L14.1566 11.0086ZM37.3299 11.6988H14.1566C13.9596 11.6947 13.7638 11.7306 13.5811 11.8043C13.3983 11.878 13.2324 11.988 13.0933 12.1276C12.8185 12.4081 12.6645 12.7852 12.6646 13.178V42.0492C12.662 42.4437 12.8162 42.823 13.0933 43.1039C13.3776 43.3811 13.7596 43.5351 14.1566 43.5326H29.3382C27.9461 41.658 27.1945 39.385 27.1945 37.0501C27.1923 35.6131 27.4736 34.1899 28.0225 32.862C28.5713 31.534 29.3768 30.3274 30.3929 29.3114C31.4089 28.2953 32.6155 27.4898 33.9435 26.9409C35.2715 26.3921 36.6947 26.1107 38.1316 26.113H38.659H38.8347V13.1866C38.8348 12.7938 38.6809 12.4167 38.406 12.1361C38.2665 11.996 38.0998 11.8857 37.9163 11.812C37.7328 11.7383 37.5362 11.7027 37.3384 11.7074L37.3299 11.6988Z" fill="white"/>
<path d="M16.7376 17.9027C16.6933 17.9033 16.6494 17.895 16.6083 17.8785C16.5672 17.8619 16.5299 17.8374 16.4984 17.8063C16.4669 17.7752 16.4418 17.7381 16.4248 17.6973C16.4077 17.6564 16.3989 17.6126 16.3989 17.5683C16.3989 17.4784 16.4346 17.3923 16.4981 17.3288C16.5616 17.2653 16.6478 17.2296 16.7376 17.2296H34.7446C34.7892 17.229 34.8335 17.2374 34.8749 17.2542C34.9162 17.271 34.9538 17.2959 34.9854 17.3275C35.0169 17.3591 35.0419 17.3966 35.0587 17.438C35.0755 17.4793 35.0839 17.5236 35.0833 17.5683C35.0839 17.6127 35.0755 17.6568 35.0586 17.698C35.0417 17.7391 35.0168 17.7764 34.9851 17.8076C34.9535 17.8388 34.9159 17.8634 34.8745 17.8797C34.8332 17.896 34.789 17.9039 34.7446 17.9027H16.7376Z" fill="white"/>
<path d="M16.7376 24.621C16.6527 24.6115 16.5743 24.5711 16.5173 24.5074C16.4603 24.4437 16.4289 24.3613 16.4289 24.2759C16.4289 24.1904 16.4603 24.108 16.5173 24.0443C16.5743 23.9806 16.6527 23.9402 16.7376 23.9307H32.6952C32.7801 23.9402 32.8585 23.9806 32.9155 24.0443C32.9725 24.108 33.004 24.1904 33.004 24.2759C33.004 24.3613 32.9725 24.4437 32.9155 24.5074C32.8585 24.5711 32.7801 24.6115 32.6952 24.621H16.7376Z" fill="white"/>
<path d="M16.7376 31.3307C16.6902 31.336 16.6422 31.3313 16.5968 31.3168C16.5514 31.3024 16.5095 31.2785 16.4739 31.2467C16.4383 31.2149 16.4099 31.176 16.3904 31.1325C16.3709 31.0889 16.3608 31.0418 16.3608 30.9941C16.3608 30.9464 16.3709 30.8993 16.3904 30.8557C16.4099 30.8122 16.4383 30.7733 16.4739 30.7415C16.5095 30.7097 16.5514 30.6858 16.5968 30.6714C16.6422 30.6569 16.6902 30.6522 16.7376 30.6575H27.1473C27.1947 30.6522 27.2427 30.6569 27.2882 30.6714C27.3336 30.6858 27.3755 30.7097 27.411 30.7415C27.4466 30.7733 27.4751 30.8122 27.4945 30.8557C27.514 30.8993 27.5241 30.9464 27.5241 30.9941C27.5241 31.0418 27.514 31.0889 27.4945 31.1325C27.4751 31.176 27.4466 31.2149 27.411 31.2467C27.3755 31.2785 27.3336 31.3024 27.2882 31.3168C27.2427 31.3313 27.1947 31.336 27.1473 31.3307H16.7376Z" fill="white"/>
<path d="M16.7376 38.0533C16.6478 38.0533 16.5616 38.0176 16.4981 37.9541C16.4346 37.8905 16.3989 37.8044 16.3989 37.7146C16.3989 37.6247 16.4346 37.5386 16.4981 37.4751C16.5616 37.4115 16.6478 37.3759 16.7376 37.3759H22.667C22.7569 37.3759 22.843 37.4115 22.9065 37.4751C22.9701 37.5386 23.0057 37.6247 23.0057 37.7146C23.0057 37.8044 22.9701 37.8905 22.9065 37.9541C22.843 38.0176 22.7569 38.0533 22.667 38.0533H16.7376Z" fill="white"/>
<path d="M38.1402 26.1601C40.6658 26.1641 43.112 27.0434 45.0622 28.6483C47.0123 30.2533 48.3458 32.4846 48.8357 34.9623C49.3255 37.44 48.9413 40.0108 47.7485 42.2371C46.5558 44.4633 44.6282 46.2073 42.294 47.172C39.9599 48.1367 37.3635 48.2625 34.947 47.5279C32.5306 46.7933 30.4434 45.2438 29.0411 43.1433C27.6387 41.0427 27.0078 38.521 27.2559 36.0076C27.5039 33.4942 28.6156 31.1444 30.4015 29.3585C31.4174 28.3422 32.6239 27.5366 33.9519 26.9877C35.2799 26.4389 36.7032 26.1576 38.1402 26.1601ZM45.3901 29.8472C43.7145 28.1722 41.5099 27.1298 39.152 26.8977C36.7941 26.6657 34.4286 27.2582 32.4585 28.5745C30.4885 29.8908 29.0357 31.8493 28.3476 34.1166C27.6596 36.3838 27.7788 38.8194 28.685 41.0086C29.5912 43.1977 31.2284 45.005 33.3176 46.1226C35.4068 47.2401 37.8188 47.5988 40.1428 47.1375C42.4668 46.6763 44.559 45.4236 46.063 43.5928C47.5671 41.7621 48.3898 39.4665 48.3913 37.0972C48.3915 34.3783 47.312 31.7705 45.3901 29.8472Z" fill="white"/>
<path d="M33.1454 39.0008L35.0232 38.8379L35.049 39.1509C35.0801 39.4178 35.139 39.6808 35.2247 39.9355C35.2937 40.152 35.3887 40.3593 35.5077 40.5529C35.6295 40.7255 35.7737 40.8812 35.9365 41.0159C36.1434 41.1738 36.3696 41.305 36.6096 41.4061C36.8832 41.5283 37.1714 41.6147 37.467 41.6633C37.7768 41.7307 38.0933 41.7624 38.4103 41.7576C38.6904 41.7579 38.97 41.7349 39.2463 41.689C39.4989 41.6476 39.7462 41.5786 39.9837 41.4832C40.1784 41.4052 40.3638 41.306 40.5368 41.1874C40.6778 41.0827 40.8046 40.9602 40.9141 40.823C41.0092 40.6925 41.083 40.5478 41.1327 40.3942C41.1832 40.2467 41.2065 40.0913 41.2013 39.9355C41.2041 39.7906 41.1853 39.6461 41.1456 39.5067C41.0945 39.3705 41.0221 39.2431 40.9312 39.1295C40.8259 39.004 40.7032 38.8943 40.5668 38.8036C40.3744 38.6847 40.1704 38.5856 39.958 38.5078C39.697 38.4113 39.4308 38.3297 39.1606 38.2634C38.7961 38.1562 38.3374 38.049 37.7714 37.9118C37.2055 37.7746 36.691 37.6289 36.2837 37.4831C35.9397 37.3815 35.6054 37.2495 35.2848 37.0887C34.9886 36.9272 34.7087 36.7377 34.4487 36.5227C34.2097 36.3136 34.0005 36.0727 33.8271 35.8067C33.6649 35.5522 33.542 35.2747 33.4626 34.9836C33.3811 34.689 33.3407 34.3846 33.3426 34.0789C33.3426 33.7364 33.3917 33.3957 33.4884 33.0671C33.5928 32.7393 33.7368 32.4255 33.9171 32.1325C34.1172 31.8304 34.3631 31.5614 34.6459 31.335C34.9476 31.0993 35.2792 30.9047 35.6321 30.7562C36.0033 30.6068 36.3881 30.4934 36.7811 30.4175C37.2059 30.345 37.6363 30.3091 38.0673 30.3103C38.5245 30.3081 38.9809 30.3483 39.4307 30.4304C39.8433 30.4999 40.2462 30.6179 40.6311 30.7819C41.3555 31.0701 41.9768 31.569 42.4147 32.2139C42.8241 32.8561 43.0536 33.5964 43.0792 34.3576V34.6663L40.8626 34.8421L40.8369 34.5334C40.8076 34.209 40.7205 33.8925 40.5797 33.5987C40.4667 33.3507 40.2962 33.1332 40.0823 32.9642C39.8531 32.7773 39.5851 32.644 39.2978 32.574C38.9106 32.4701 38.511 32.4197 38.1102 32.424C37.1884 32.424 36.5281 32.5869 36.138 32.9128C35.9591 33.0438 35.8125 33.2139 35.7092 33.4101C35.6175 33.5859 35.5718 33.7821 35.5763 33.9803C35.5719 34.1468 35.6041 34.3122 35.6706 34.4648C35.7278 34.6145 35.8259 34.7452 35.9536 34.8421C36.1777 35.0166 36.4341 35.1448 36.7082 35.2194C37.2257 35.3963 37.7542 35.5395 38.2902 35.6481C38.9633 35.7982 39.5293 35.9439 40.0052 36.0768C40.3862 36.1773 40.7601 36.3033 41.1242 36.4541C41.4835 36.6179 41.823 36.8222 42.136 37.0629C42.4158 37.2877 42.6613 37.552 42.8648 37.8475C43.0509 38.1267 43.1953 38.4314 43.2936 38.7522C43.3874 39.0899 43.4336 39.4392 43.4308 39.7897C43.4281 40.1506 43.3777 40.5096 43.2807 40.8573C43.165 41.2043 43.0066 41.5355 42.8091 41.8434C42.606 42.1697 42.3495 42.4596 42.0503 42.7008C41.7424 42.9559 41.4021 43.1693 41.0384 43.3354C40.6534 43.509 40.251 43.6412 39.838 43.7298C39.3968 43.8113 38.949 43.8515 38.5003 43.8499C37.962 43.8538 37.4243 43.8136 36.8925 43.7298C36.4251 43.6484 35.9679 43.5161 35.5291 43.3354C35.1365 43.1659 34.7687 42.9438 34.4359 42.6751C34.1004 42.4097 33.8107 42.0911 33.5784 41.7319C33.3463 41.3802 33.1644 40.9978 33.0382 40.5957C32.9128 40.178 32.8436 39.7455 32.8324 39.3095V39.0008H33.1454ZM34.453 39.5282L33.5227 39.6225C33.5507 39.892 33.6009 40.1587 33.6727 40.42C33.7772 40.7611 33.9318 41.0847 34.1315 41.3803C34.3211 41.6851 34.5636 41.9537 34.8475 42.1735C35.1291 42.4099 35.4422 42.6061 35.7778 42.7566C36.168 42.9155 36.5751 43.0291 36.9911 43.0953C37.4867 43.1801 37.9889 43.2202 38.4917 43.2153C38.8943 43.2156 39.2961 43.1797 39.6922 43.1081C40.0609 43.0345 40.4194 42.9164 40.7597 42.7566C41.0681 42.615 41.3564 42.4334 41.6172 42.2164C41.8594 42.0116 42.0728 41.7751 42.2518 41.5132C42.4146 41.2556 42.5456 40.9792 42.6419 40.6901C42.7217 40.4112 42.7621 40.1226 42.762 39.8326C42.7666 39.5423 42.7261 39.253 42.6419 38.9751C42.5692 38.7114 42.4548 38.461 42.3032 38.2334C42.138 37.9979 41.9386 37.7883 41.7115 37.6117C41.444 37.3967 41.1483 37.2193 40.8326 37.0844C40.5004 36.9417 40.1578 36.8242 39.808 36.7328C39.3792 36.5999 38.7918 36.4627 38.1316 36.3041C37.5696 36.1981 37.0153 36.0549 36.4724 35.8753C36.1206 35.7637 35.7911 35.591 35.4991 35.3651C35.3116 35.1976 35.1649 34.9893 35.0704 34.7563C34.9658 34.5234 34.9145 34.27 34.9203 34.0146C34.9196 33.7165 34.9901 33.4225 35.1261 33.1571C35.2758 32.8791 35.4817 32.6353 35.7307 32.4411C36.4348 31.9799 37.2704 31.7616 38.1102 31.8195C38.5656 31.8138 39.0197 31.8686 39.4607 31.9824C39.8372 32.0834 40.1899 32.2583 40.4982 32.4969C40.7772 32.7321 41.0024 33.0245 41.1585 33.3544C41.2928 33.6243 41.3839 33.9136 41.4286 34.2118L42.3889 34.1304C42.3645 33.9096 42.32 33.6914 42.256 33.4787C42.1604 33.1777 42.0279 32.8897 41.8616 32.6212C41.6904 32.3583 41.4758 32.1264 41.2271 31.9352C40.9704 31.7193 40.6809 31.5457 40.3696 31.4208C40.0211 31.2799 39.659 31.175 39.2892 31.1078C38.8785 31.0372 38.4626 31.0013 38.0458 31.0006C37.6611 31.0043 37.2771 31.0358 36.8968 31.0949C36.545 31.1622 36.2015 31.2671 35.8721 31.4079C35.5745 31.5205 35.2966 31.6796 35.049 31.8795C34.8224 32.0498 34.6217 32.252 34.453 32.4797C34.2987 32.7202 34.1762 32.9795 34.0886 33.2515C34.008 33.5184 33.9675 33.7958 33.9685 34.0746C33.9686 34.3215 34.0047 34.567 34.0757 34.8035C34.1378 35.032 34.2332 35.2501 34.3587 35.4509C34.495 35.6661 34.6594 35.8621 34.8475 36.034C35.0663 36.2193 35.3067 36.3777 35.5635 36.5056C35.8547 36.6511 36.1573 36.773 36.4681 36.87C36.8582 36.99 37.3256 37.1273 37.8958 37.2602C38.466 37.3931 38.9505 37.5174 39.3149 37.6246C39.6063 37.6907 39.8928 37.7766 40.1724 37.8818C40.4283 37.9754 40.6728 38.0976 40.9012 38.2463C41.2985 38.4844 41.6014 38.8524 41.7587 39.2881C41.8279 39.497 41.8641 39.7154 41.8659 39.9355C41.8649 40.1598 41.8288 40.3826 41.7587 40.5957C41.6872 40.81 41.5815 41.0112 41.4457 41.1917C41.3021 41.3969 41.1236 41.5754 40.9184 41.719C40.7022 41.8703 40.4673 41.9928 40.2195 42.0835C39.9521 42.1957 39.671 42.2721 39.3835 42.3107C39.0709 42.367 38.7537 42.3943 38.436 42.3921C38.0779 42.3959 37.7203 42.3644 37.3684 42.2978C37.0346 42.2306 36.7096 42.1255 36.3995 41.9848C36.1079 41.868 35.8349 41.7091 35.5892 41.5132C35.357 41.341 35.1555 41.1308 34.9932 40.8916C34.8363 40.6587 34.7136 40.4046 34.6288 40.137C34.5648 39.9334 34.5146 39.7257 34.4787 39.5153L34.453 39.5282Z" fill="white"/>
<path d="M37.2913 28.1924H39.3278V31.1121L38.9505 31.0563L38.5217 31.0178C38.369 31.009 38.2158 31.009 38.063 31.0178H37.6986L37.3341 31.0435L36.9697 31.0821V28.1924H37.2913ZM38.6546 28.8698H37.6257V30.3361H38.0544C38.2173 30.3361 38.3803 30.3361 38.556 30.3361H38.6632L38.6546 28.8698ZM39.3278 32.1925V36.6085L38.1402 36.3213C37.8221 36.2615 37.5073 36.1857 37.1969 36.094L36.9526 36.0254V31.8795L37.2484 31.8409L37.6557 31.7981C37.8015 31.7981 37.9515 31.7981 38.0844 31.7981C38.2173 31.7981 38.4189 31.7981 38.5689 31.8238C38.7232 31.8289 38.8767 31.8475 39.0276 31.8795L39.3106 31.9181L39.3278 32.1925ZM38.6546 35.7553V32.4798H38.5475C38.3974 32.4798 38.2602 32.454 38.1187 32.454C37.9772 32.454 37.8315 32.454 37.7114 32.454H37.6428V35.4552C37.8486 35.5109 38.0716 35.5667 38.3074 35.6181L38.6546 35.7553ZM39.3278 37.899V42.3407L39.0191 42.3836H38.719H38.4103C38.2088 42.3836 38.0073 42.3836 37.8015 42.3579C37.5957 42.3321 37.4113 42.3021 37.2098 42.2635L36.9526 42.1949V37.0158C37.7371 37.2173 38.5303 37.4102 39.3278 37.6246V37.899ZM38.6546 41.7576V38.1391L37.6257 37.8818V41.6762L37.8701 41.7148C38.0495 41.734 38.2298 41.744 38.4103 41.7448L38.6546 41.7576ZM39.3278 43.5498V46.0364H36.9526V43.121L37.3299 43.1596C37.5056 43.1853 37.6943 43.2025 37.8829 43.2153C38.0716 43.2282 38.2774 43.2153 38.4917 43.2153H38.7361L39.3278 43.1725V43.5498ZM38.6546 45.3419V43.8842H38.4917C38.2774 43.8842 38.063 43.8842 37.8443 43.8842H37.6257V45.3419H38.6546Z" fill="white"/>
</svg>
