<svg xmlns="http://www.w3.org/2000/svg" width="128" height="122" viewBox="0 0 128 122" fill="none"><path d="M74.8482 105.476C67.0549 116.339 56.5457 121.771 43.3206 121.771C30.2137 121.771 19.7635 116.339 11.9702 105.476C4.29494 94.4945 0.457312 79.7344 0.457312 61.1958C0.457312 42.4209 4.29494 27.6018 11.9702 16.7383C19.7635 5.87489 30.2727 0.443177 43.4978 0.443177C52.2358 0.443177 59.7929 2.92287 66.1693 7.88227C72.6637 12.7236 77.6822 19.7494 81.2246 28.9597C84.767 38.0519 86.5382 48.7973 86.5382 61.1958C86.5382 79.7344 82.6416 94.4945 74.8482 105.476ZM14.627 102.996C21.7119 113.269 31.3354 118.406 43.4978 118.406C55.6601 118.406 65.2837 113.269 72.3685 102.996C79.4534 92.7233 82.9958 78.7898 82.9958 61.1958C82.9958 43.4836 79.4534 29.4911 72.3685 19.218C65.2837 8.945 55.6011 3.80848 43.3206 3.80848C31.1583 3.80848 21.5347 8.945 14.4499 19.218C7.48312 29.4911 3.99974 43.4836 3.99974 61.1958C3.99974 78.7898 7.54216 92.7233 14.627 102.996ZM96.9815 2.21439H127.446V120H123.904V5.57969H96.9815V2.21439Z" fill="url(#paint0_linear_29_152)"></path><defs><linearGradient id="paint0_linear_29_152" x1="68" y1="-42" x2="68" y2="120" gradientUnits="userSpaceOnUse"><stop stop-color="white"></stop><stop offset="1" stop-color="white" stop-opacity="0"></stop></linearGradient></defs></svg>