<svg xmlns="http://www.w3.org/2000/svg" width="181" height="122" viewBox="0 0 181 122" fill="none"><path d="M74.9567 105.476C67.1634 116.339 56.6542 121.771 43.4291 121.771C30.3221 121.771 19.872 116.339 12.0787 105.476C4.4034 94.4945 0.565772 79.7344 0.565772 61.1958C0.565772 42.4209 4.4034 27.6018 12.0787 16.7383C19.872 5.87489 30.3812 0.443177 43.6062 0.443177C52.3442 0.443177 59.9014 2.92287 66.2777 7.88227C72.7722 12.7236 77.7906 19.7494 81.3331 28.9597C84.8755 38.0519 86.6467 48.7973 86.6467 61.1958C86.6467 79.7344 82.75 94.4945 74.9567 105.476ZM14.7355 102.996C21.8203 113.269 31.4439 118.406 43.6062 118.406C55.7686 118.406 65.3921 113.269 72.477 102.996C79.5618 92.7233 83.1043 78.7898 83.1043 61.1958C83.1043 43.4836 79.5618 29.4911 72.477 19.218C65.3921 8.945 55.7095 3.80848 43.4291 3.80848C31.2668 3.80848 21.6432 8.945 14.5583 19.218C7.59158 29.4911 4.1082 43.4836 4.1082 61.1958C4.1082 78.7898 7.65062 92.7233 14.7355 102.996ZM110.262 116.635H180.225V120H104.771V117.343C119.767 102.583 131.457 90.834 139.841 82.0961C148.225 73.24 154.719 65.6238 159.325 59.2474C163.93 52.753 166.823 47.6755 168.003 44.015C169.302 40.2364 169.952 35.9265 169.952 31.0851C169.952 22.9376 167.295 16.3841 161.981 11.4247C156.786 6.34722 149.819 3.80848 141.081 3.80848C132.343 3.80848 125.199 6.34722 119.649 11.4247C114.218 16.5022 111.502 23.0556 111.502 31.0851V34.4505H107.959V31.0851C107.959 21.9929 111.088 14.6129 117.347 8.94499C123.605 3.27712 131.516 0.443177 141.081 0.443177C150.764 0.443177 158.557 3.27712 164.461 8.94499C170.483 14.6129 173.494 21.9929 173.494 31.0851C173.494 36.0445 172.845 40.4726 171.546 44.3692C170.365 48.2659 167.531 53.4024 163.044 59.7788C158.675 66.1551 152.358 73.7123 144.092 82.4503C135.945 91.0702 124.668 102.465 110.262 116.635Z" fill="url(#paint0_linear_29_153)"></path><defs><linearGradient id="paint0_linear_29_153" x1="88" y1="-42" x2="88" y2="120" gradientUnits="userSpaceOnUse"><stop stop-color="white"></stop><stop offset="1" stop-color="white" stop-opacity="0"></stop></linearGradient></defs></svg>