<svg xmlns="http://www.w3.org/2000/svg" width="179" height="122" viewBox="0 0 179 122" fill="none"><path d="M74.6783 105.476C66.885 116.339 56.3758 121.771 43.1507 121.771C30.0438 121.771 19.5936 116.339 11.8003 105.476C4.12503 94.4945 0.287406 79.7344 0.287406 61.1958C0.287406 42.4209 4.12503 27.6018 11.8003 16.7383C19.5936 5.87489 30.1028 0.443177 43.3279 0.443177C52.0658 0.443177 59.623 2.92287 65.9994 7.88227C72.4938 12.7236 77.5123 19.7494 81.0547 28.9597C84.5971 38.0519 86.3683 48.7973 86.3683 61.1958C86.3683 79.7344 82.4717 94.4945 74.6783 105.476ZM14.4571 102.996C21.542 113.269 31.1655 118.406 43.3279 118.406C55.4902 118.406 65.1138 113.269 72.1986 102.996C79.2835 92.7233 82.8259 78.7898 82.8259 61.1958C82.8259 43.4836 79.2835 29.4911 72.1986 19.218C65.1138 8.945 55.4311 3.80848 43.1507 3.80848C30.9884 3.80848 21.3648 8.945 14.28 19.218C7.31321 29.4911 3.82983 43.4836 3.82983 61.1958C3.82983 78.7898 7.37226 92.7233 14.4571 102.996ZM140.271 48.443C151.253 48.5611 160.345 52.1626 167.548 59.2474C174.869 66.2142 178.529 74.775 178.529 84.93C178.529 95.5573 174.987 104.354 167.902 111.321C160.817 118.288 152.079 121.771 141.688 121.771C131.651 121.771 123.209 118.642 116.36 112.384C109.629 106.126 105.851 98.096 105.024 88.2953H108.567C109.039 94.1993 110.751 99.4539 113.703 104.059C116.655 108.546 120.552 112.089 125.393 114.686C130.234 117.166 135.666 118.406 141.688 118.406C151.253 118.406 159.223 115.218 165.6 108.841C171.976 102.465 175.164 94.4945 175.164 84.93C175.164 75.6016 171.74 67.7492 164.891 61.3729C158.161 54.9965 149.836 51.8083 139.917 51.8083H130.884V49.86L168.965 5.40257H109.806V2.03727H174.279V3.9856L136.02 48.443H140.271Z" fill="url(#paint0_linear_29_154)"></path><defs><linearGradient id="paint0_linear_29_154" x1="88.5" y1="-42" x2="89" y2="120" gradientUnits="userSpaceOnUse"><stop stop-color="white"></stop><stop offset="1" stop-color="white" stop-opacity="0"></stop></linearGradient></defs></svg>