<svg xmlns="http://www.w3.org/2000/svg" width="45" height="45" viewBox="0 0 45 45" fill="none"><path d="M43.751 22.5C43.751 34.3794 34.1757 44 22.3755 44C10.5754 44 1 34.3794 1 22.5C1 10.6206 10.5754 1 22.3755 1C34.1757 1 43.751 10.6206 43.751 22.5Z" fill="#169FDB" stroke="#169FDB" stroke-width="2"></path><path d="M29.7681 23.0656L20.3475 32.7425C20.0388 33.0594 19.5391 33.0588 19.231 32.7409C18.9231 32.4229 18.9239 31.9079 19.2326 31.5908L28.0924 22.4899L19.2322 13.389C18.9236 13.0718 18.9228 12.5571 19.2306 12.2392C19.3851 12.0798 19.5875 12.0001 19.7898 12.0001C19.9917 12.0001 20.1932 12.0792 20.3474 12.2375L29.7681 21.9142C29.9168 22.0665 30.0002 22.2738 30.0002 22.4899C30.0002 22.7059 29.9165 22.913 29.7681 23.0656Z" fill="white"></path></svg>