<svg xmlns="http://www.w3.org/2000/svg" width="45" height="45" viewBox="0 0 45 45" fill="none"><path d="M43.7508 22.5C43.7508 34.3794 34.1754 44 22.3753 44C10.5751 44 0.999756 34.3794 0.999756 22.5C0.999756 10.6206 10.5751 1 22.3753 1C34.1754 1 43.7508 10.6206 43.7508 22.5Z" stroke="#169FDB" stroke-width="2"></path><path d="M21.9141 28.7681L12.2372 19.3475C11.9204 19.0388 11.9209 18.5391 12.2389 18.231C12.5568 17.9231 13.0718 17.9239 13.389 18.2326L22.4899 27.0924L31.5908 18.2322C31.9079 17.9236 32.4226 17.9228 32.7406 18.2306C32.9 18.3851 32.9797 18.5875 32.9797 18.7898C32.9797 18.9917 32.9005 19.1932 32.7422 19.3474L23.0656 28.7681C22.9132 28.9168 22.7059 29.0002 22.4899 29.0002C22.2739 29.0002 22.0668 28.9165 21.9141 28.7681Z" fill="#169FDB"></path></svg>