<svg xmlns="http://www.w3.org/2000/svg" width="126" height="134" viewBox="0 0 126 134" fill="none"><g clip-path="url(#clip0_29_159)"><path d="M1.1267 20.2598H62.9324C63.0843 20.2637 63.234 20.2974 63.3728 20.3592C63.5117 20.421 63.637 20.5095 63.7416 20.6197C63.8463 20.7299 63.9282 20.8597 63.9827 21.0016C64.0371 21.1435 64.0631 21.2947 64.0591 21.4466C64.0567 21.6112 64.0099 21.7721 63.9239 21.9123C63.0695 23.8996 62.4007 25.9615 61.9258 28.0719C61.4902 30.1876 61.2688 32.3418 61.2648 34.5018C61.2648 46.896 75.9875 70.0919 86.2484 86.317C88.6672 90.1029 90.7554 93.453 92.4981 96.3074C94.1957 93.453 96.329 90.1029 98.7478 86.317C103.615 78.6551 109.444 69.4308 114.267 60.5221C114.407 60.2639 114.643 60.0707 114.923 59.9837C115.204 59.8967 115.507 59.9228 115.769 60.0563C115.949 60.1534 116.101 60.296 116.209 60.47C116.317 60.6439 116.378 60.8432 116.385 61.0479V126.489C116.387 126.64 116.359 126.789 116.302 126.928C116.246 127.068 116.162 127.195 116.055 127.301C115.949 127.407 115.822 127.491 115.683 127.548C115.543 127.605 115.394 127.633 115.243 127.631H1.06661C0.91679 127.633 0.768107 127.605 0.629475 127.548C0.490842 127.491 0.36513 127.407 0.259888 127.3C0.154646 127.194 0.0720397 127.067 0.0170461 126.927C-0.0379475 126.788 -0.0642018 126.639 -0.0601378 126.489V21.4466C-0.0641352 21.2947 -0.0381574 21.1435 0.0163126 21.0016C0.0707825 20.8597 0.152683 20.7299 0.25732 20.6197C0.361958 20.5095 0.487289 20.421 0.626151 20.3592C0.765013 20.2974 0.914678 20.2637 1.06661 20.2598H1.1267ZM61.2197 22.5734H2.26847V125.347H114.117V65.4497C109.775 73.2167 104.847 80.9237 100.686 87.5489C97.8013 92.0559 95.2924 96.0671 93.5347 99.0868C93.4176 99.28 93.2584 99.4443 93.069 99.5675C92.809 99.6845 92.5161 99.7065 92.2415 99.6296C91.967 99.5527 91.7281 99.3819 91.5667 99.1469C89.8089 96.1422 87.255 92.0859 84.3705 87.5489C73.9594 71.0233 59.0564 47.512 59.0564 34.5018C59.0538 32.1801 59.2904 29.8643 59.7625 27.5911C60.1409 25.8843 60.643 24.2073 61.2648 22.5734H61.2197Z" fill="#00AEEF"></path><path d="M0.856323 61.8442L61.7906 45.4839L62.4066 47.6472L1.41218 64.0226L0.856323 61.8442Z" fill="#00AEEF"></path><path d="M114.552 127.391L54.174 79.5415L55.6012 77.7988L115.98 125.588L114.552 127.391Z" fill="#00AEEF"></path><path d="M70.2638 62.5652C70.3676 62.4566 70.4924 62.3702 70.6305 62.3111C70.7687 62.252 70.9174 62.2216 71.0676 62.2216C71.2178 62.2216 71.3665 62.252 71.5047 62.3111C71.6428 62.3702 71.7675 62.4566 71.8713 62.5652C72.073 62.7843 72.1849 63.0712 72.1849 63.369C72.1849 63.6667 72.073 63.9536 71.8713 64.1727L5.15308 127.27L3.65076 125.603L70.2638 62.5652Z" fill="#00AEEF"></path><path d="M50.2078 40.1355L23.0908 22.3931L24.3227 20.4551L63.8339 46.3251L62.602 48.218L50.2078 40.1355Z" fill="#00AEEF"></path><path d="M92.4983 1C101.382 1.00398 109.901 4.53492 116.183 10.8169C122.465 17.0988 125.996 25.6179 126 34.5019C126 47.512 111.097 71.0835 100.686 87.549C97.8015 92.0559 95.2475 96.1122 93.4898 99.1469C93.3284 99.3819 93.0895 99.5528 92.8149 99.6296C92.5403 99.7065 92.2475 99.6846 91.9875 99.5676C91.8289 99.447 91.6874 99.3055 91.5668 99.1469C89.8091 96.1423 87.2551 92.086 84.3707 87.549V87.4588C73.8544 70.9333 59.0565 47.512 59.0565 34.5019C59.0605 25.6179 62.5914 17.0988 68.8734 10.8169C75.1553 4.53492 83.6744 1.00398 92.5584 1H92.4983ZM114.597 12.4477C108.739 6.59928 100.799 3.31456 92.5208 3.31456C84.2427 3.31456 76.3028 6.59928 70.4441 12.4477C67.5306 15.3333 65.2189 18.7686 63.6432 22.5544C62.0675 26.3403 61.2591 30.4012 61.2649 34.5019C61.2649 46.851 75.9426 70.0319 86.2035 86.272C88.6223 90.0578 90.7105 93.408 92.4532 96.2624C94.1508 93.408 96.2841 90.0578 98.7029 86.272C108.964 70.0469 123.687 46.851 123.687 34.4568C123.69 30.3606 122.885 26.3039 121.318 22.5194C119.75 18.7348 117.451 15.2969 114.552 12.4026L114.597 12.4477Z" fill="#00AEEF"></path><path d="M92.4981 13.4541C97.1671 13.4496 101.693 15.0646 105.305 18.0238C108.916 20.9829 111.39 25.103 112.304 29.6817C113.217 34.2605 112.515 39.0144 110.316 43.1332C108.117 47.2519 104.557 50.4804 100.244 52.2685C95.9309 54.0565 91.1312 54.2933 86.663 52.9385C82.1949 51.5837 78.3349 48.7212 75.7411 44.839C73.1473 40.9567 71.9802 36.295 72.4388 31.6485C72.8974 27.0021 74.9533 22.6585 78.256 19.3583C80.1231 17.4833 82.3428 15.9963 84.7871 14.983C87.2314 13.9697 89.852 13.4501 92.4981 13.4541ZM105.133 20.9657C102.212 18.0655 98.3768 16.2668 94.2795 15.8758C90.1822 15.4848 86.0759 16.5255 82.6595 18.821C79.2432 21.1165 76.7277 24.5249 75.5413 28.4661C74.3549 32.4074 74.5707 36.638 76.1522 40.438C77.7336 44.238 80.583 47.3726 84.2153 49.3084C87.8476 51.2443 92.0384 51.8617 96.0747 51.0556C100.111 50.2496 103.743 48.0698 106.353 44.8873C108.963 41.7048 110.39 37.7163 110.391 33.6003C110.367 28.8614 108.478 24.3225 105.133 20.9657Z" fill="#00AEEF"></path><path d="M92.4982 20.9658C92.3484 20.9699 92.1994 20.9436 92.06 20.8886C91.9206 20.8336 91.7938 20.751 91.6872 20.6458C91.5805 20.5406 91.4962 20.4149 91.4394 20.2762C91.3826 20.1376 91.3544 19.9889 91.3564 19.8391C91.3603 19.5375 91.4819 19.2493 91.6952 19.036C91.9084 18.8227 92.1966 18.7012 92.4982 18.6973C94.4564 18.6933 96.3961 19.0761 98.206 19.8237C100.016 20.5712 101.66 21.6688 103.045 23.0535C104.43 24.4381 105.527 26.0826 106.275 27.8925C107.022 29.7024 107.405 31.6422 107.401 33.6004C107.405 33.7502 107.379 33.8992 107.324 34.0386C107.269 34.178 107.186 34.3048 107.081 34.4114C106.976 34.5181 106.85 34.6023 106.712 34.6592C106.573 34.716 106.424 34.7442 106.275 34.7421C106.124 34.7441 105.975 34.716 105.835 34.6594C105.696 34.6027 105.569 34.5187 105.463 34.4122C105.356 34.3058 105.272 34.1791 105.216 34.0397C105.159 33.9003 105.131 33.7509 105.133 33.6004C105.117 30.2544 103.781 27.0499 101.415 24.6839C99.0487 22.3178 95.8442 20.9816 92.4982 20.9658Z" fill="#00AEEF"></path></g><defs><clipPath id="clip0_29_159"><rect width="126" height="132.652" fill="white" transform="translate(0 0.601562)"></rect></clipPath></defs></svg>