<?xml version="1.0" encoding="UTF-8"?> <svg xmlns="http://www.w3.org/2000/svg" width="16" height="16" viewBox="0 0 16 16" fill="none"><path d="M10.8404 15.683C6.49764 12.3099 3.05752 8.78682 0.396277 5.23898C-1.09012 3.25761 2.01225 -0.859453 3.03133 0.159622L6.27053 3.39882C6.3495 3.47778 6.41213 3.57151 6.45487 3.67468C6.49761 3.77784 6.51961 3.88841 6.51961 4.00008C6.51961 4.11175 6.49761 4.22232 6.45487 4.32549C6.41213 4.42865 6.3495 4.52238 6.27053 4.60133C5.85853 5.01188 5.40576 5.57528 4.44201 5.64079C5.98108 7.76648 7.84844 9.63385 9.97413 11.1729C10.0396 10.2092 10.603 9.75494 11.0136 9.3444C11.0925 9.26543 11.1863 9.20278 11.2894 9.16004C11.3926 9.1173 11.5032 9.09531 11.6148 9.09531C11.7265 9.09531 11.8371 9.1173 11.9403 9.16004C12.0434 9.20278 12.1371 9.26543 12.2161 9.3444L15.7479 12.8762C17.0523 14.1806 12.4476 16.9307 10.8404 15.683Z" fill="white"></path></svg> 