<?xml version="1.0" encoding="UTF-8"?> <svg xmlns="http://www.w3.org/2000/svg" width="17" height="14" viewBox="0 0 17 14" fill="none"><path d="M16.9528 0.291477C16.882 0.103043 16.8112 0.0559407 16.7167 0.0323865C16.4571 -0.0618301 16.0558 0.0794977 16.0558 0.0794977C16.0558 0.0794977 1.16072 5.40273 0.310919 5.99159C0.122075 6.10936 0.0748645 6.20358 0.0276535 6.27424C-0.113979 6.69821 0.334526 6.88664 0.334526 6.88664L4.18222 8.13501C4.18222 8.13501 4.32385 8.15856 4.37107 8.13501C5.24447 7.59326 13.1523 2.59979 13.6008 2.43491C13.6716 2.41136 13.7188 2.4349 13.7188 2.48201C13.53 3.11797 6.66079 9.21851 6.66079 9.21851C6.66079 9.21851 6.63719 9.24206 6.61359 9.28917L6.2595 13.0814C6.2595 13.0814 6.11787 14.2355 7.27454 13.0814C8.10073 12.257 8.90332 11.5739 9.281 11.2442C10.6029 12.1628 12.0192 13.1521 12.633 13.6938C12.9399 13.9529 13.1995 14 13.412 14C14.0021 13.9764 14.1673 13.3405 14.1673 13.3405C14.1673 13.3405 16.882 2.43491 16.9764 0.974553C16.9764 0.833228 17 0.739006 17 0.644789C17 0.47991 16.9764 0.362139 16.9528 0.291477Z" fill="white"></path></svg> 