<?xml version="1.0" encoding="UTF-8"?> <svg xmlns="http://www.w3.org/2000/svg" viewBox="0 0 623.21 107.21"><defs><style>.cls-1{fill:#169fdb;}.cls-2{fill:#fff;}</style></defs><g id="Слой_2" data-name="Слой 2"><g id="Слой_1-2" data-name="Слой 1"><polygon class="cls-1" points="0 0.25 0 79.43 77.26 79.43 77.26 57.46 10.82 57.46 10.82 9.48 101.17 9.48 101.17 0.25 0 0.25"></polygon><polygon class="cls-1" points="23.7 44.22 90.35 44.22 90.35 92.19 0 92.19 0 101.42 101.17 101.42 101.17 22.25 23.7 22.25 23.7 44.22"></polygon><path class="cls-2" d="M141.94,101.48l-4.23-10.36-4.37,10.36h-4.23l6.41-15.27h4.57l6.42,15.27Z"></path><path class="cls-2" d="M154.32,100.7a7.52,7.52,0,0,1-3-2.79,8.17,8.17,0,0,1,0-8.12,7.62,7.62,0,0,1,3-2.8A9.85,9.85,0,0,1,163,87a7.66,7.66,0,0,1,3,2.8,8.24,8.24,0,0,1,0,8.12,7.56,7.56,0,0,1-3,2.79,9.77,9.77,0,0,1-8.65,0Zm7.13-3.77a4.9,4.9,0,0,0,0-6.16,3.68,3.68,0,0,0-2.8-1.15,3.73,3.73,0,0,0-2.81,1.15,4.86,4.86,0,0,0,0,6.16,3.77,3.77,0,0,0,2.81,1.15A3.72,3.72,0,0,0,161.45,96.93Z"></path><path class="cls-2" d="M185.13,89.85H177.3v11.63h-4.4V86.21h12.23Z"></path><path class="cls-2" d="M190.32,86.21h4.4V95.3l7.44-9.09h4.05v15.27h-4.39V92.4l-7.41,9.08h-4.09Z"></path><path class="cls-2" d="M216.19,100.7a7.53,7.53,0,0,1-3-2.79,7.71,7.71,0,0,1,3-10.92,9.42,9.42,0,0,1,4.38-1,8.52,8.52,0,0,1,4.22,1,6.05,6.05,0,0,1,2.62,2.88L224,91.72a3.75,3.75,0,0,0-3.43-2.1,3.91,3.91,0,0,0-2.87,1.13,4.77,4.77,0,0,0,0,6.19,3.88,3.88,0,0,0,2.87,1.14A3.72,3.72,0,0,0,224,96l3.43,1.87a6.1,6.1,0,0,1-2.62,2.84,8.42,8.42,0,0,1-4.22,1A9.42,9.42,0,0,1,216.19,100.7Z"></path><path class="cls-2" d="M245.72,89.85h-5.17v11.63h-4.4V89.85H231V86.21h14.73Z"></path><path class="cls-2" d="M250.91,86.21h4.4V95.3l7.44-9.09h4.05v15.27h-4.4V92.4l-7.4,9.08h-4.09Z"></path><path class="cls-2" d="M280.62,95.69h-2.3v5.79H273.9V86.21h4.42v5.94h2.39l4.14-5.94h4.71l-5.33,7.33,5.7,7.94h-5.22Z"></path><path class="cls-2" d="M306.05,87.68a6.44,6.44,0,0,1,1.9,5.09v8.71h-4.14v-1.9c-.83,1.42-2.39,2.13-4.66,2.13a7.18,7.18,0,0,1-3-.6,4.52,4.52,0,0,1-2-1.64,4.33,4.33,0,0,1-.68-2.39,4,4,0,0,1,1.6-3.35,8.21,8.21,0,0,1,5-1.22h3.51a2.83,2.83,0,0,0-.87-2.22,3.89,3.89,0,0,0-2.64-.78,7.53,7.53,0,0,0-2.4.38,6.29,6.29,0,0,0-2,1L294,87.83a9.69,9.69,0,0,1,3-1.36A13.51,13.51,0,0,1,300.6,86,7.92,7.92,0,0,1,306.05,87.68ZM302.28,98.2a2.85,2.85,0,0,0,1.24-1.54V95.1h-3c-1.82,0-2.73.59-2.73,1.78a1.61,1.61,0,0,0,.67,1.35,3,3,0,0,0,1.83.5A3.88,3.88,0,0,0,302.28,98.2Z"></path><path class="cls-2" d="M348.62,89.85h-7.83v11.63h-4.4V86.21h12.23Z"></path><path class="cls-2" d="M366.68,87a7,7,0,0,1,2.74,2.75,9.11,9.11,0,0,1,0,8.26,7,7,0,0,1-2.74,2.75,7.78,7.78,0,0,1-3.87,1,5.91,5.91,0,0,1-4.6-1.85V107h-4.43V86.21H358V88a5.89,5.89,0,0,1,4.8-2A7.68,7.68,0,0,1,366.68,87Zm-1.84,10a4.9,4.9,0,0,0,0-6.16,4,4,0,0,0-5.59,0,4.86,4.86,0,0,0,0,6.16,4,4,0,0,0,5.59,0Z"></path><path class="cls-2" d="M391.21,86.21l-6.89,16.21a8,8,0,0,1-2.6,3.72,6.41,6.41,0,0,1-3.73,1.07,8,8,0,0,1-2.36-.36,5.22,5.22,0,0,1-1.9-1l1.62-3.15a3.61,3.61,0,0,0,1.18.71,3.65,3.65,0,0,0,1.32.26,2.34,2.34,0,0,0,1.47-.44,3.78,3.78,0,0,0,1-1.46l0-.14-6.61-15.39h4.57l4.28,10.36L387,86.21Z"></path><path class="cls-2" d="M407.86,94.84a3.14,3.14,0,0,1,.75,2.1,3.66,3.66,0,0,1-1,2.54,6.4,6.4,0,0,1-2.73,1.69,11.89,11.89,0,0,1-3.91.6,17.17,17.17,0,0,1-3.52-.37,13.67,13.67,0,0,1-3.21-1.11l1.19-3.09a12.22,12.22,0,0,0,5.34,1.16,5.33,5.33,0,0,0,2.45-.47,1.44,1.44,0,0,0,.9-1.32,1.24,1.24,0,0,0-.63-1.12,3.54,3.54,0,0,0-1.81-.38h-3.13V92.32h2.73a3.65,3.65,0,0,0,1.79-.37,1.2,1.2,0,0,0,.62-1.08,1.25,1.25,0,0,0-.78-1.14,5.1,5.1,0,0,0-2.23-.39,13,13,0,0,0-4.82,1l-1.08-3.07A15.33,15.33,0,0,1,401,85.93a12.4,12.4,0,0,1,3.7.51,6,6,0,0,1,2.57,1.49,3.22,3.22,0,0,1,.93,2.29,3.13,3.13,0,0,1-.65,1.94,4.42,4.42,0,0,1-1.79,1.38A4.38,4.38,0,0,1,407.86,94.84Z"></path><path class="cls-2" d="M417.48,100.7a7.48,7.48,0,0,1-3-2.79,8.24,8.24,0,0,1,0-8.12,7.58,7.58,0,0,1,3-2.8,9.83,9.83,0,0,1,8.64,0,7.59,7.59,0,0,1,3,2.8,8.17,8.17,0,0,1,0,8.12,7.49,7.49,0,0,1-3,2.79,9.74,9.74,0,0,1-8.64,0Zm7.12-3.77a4.9,4.9,0,0,0,0-6.16,4,4,0,0,0-5.6,0,4.83,4.83,0,0,0,0,6.16,4,4,0,0,0,5.6,0Z"></path><path class="cls-2" d="M451.24,86.21v15.27h-4.43V89.85h-6.36v11.63h-4.4V86.21Z"></path><path class="cls-2" d="M473.09,95.1H461.54A3.59,3.59,0,0,0,463,97.34a4.89,4.89,0,0,0,2.9.82,6,6,0,0,0,2.11-.35,5.15,5.15,0,0,0,1.72-1.12l2.35,2.55a7.88,7.88,0,0,1-6.3,2.47,10,10,0,0,1-4.57-1,7.39,7.39,0,0,1-3.06-2.79,7.73,7.73,0,0,1-1.08-4.06,7.83,7.83,0,0,1,1.07-4A7.45,7.45,0,0,1,461.07,87a9.09,9.09,0,0,1,8.21,0,7.06,7.06,0,0,1,2.86,2.77,8.25,8.25,0,0,1,1,4.18C473.17,94,473.14,94.36,473.09,95.1Zm-10.36-4.91a3.6,3.6,0,0,0-1.25,2.32H469a3.63,3.63,0,0,0-3.75-3.17A3.79,3.79,0,0,0,462.73,90.19Z"></path><path class="cls-2" d="M492.28,87A7,7,0,0,1,495,89.72,9,9,0,0,1,495,98a7,7,0,0,1-2.74,2.75,7.78,7.78,0,0,1-3.87,1,5.91,5.91,0,0,1-4.6-1.85V107h-4.42V86.21h4.22V88a5.89,5.89,0,0,1,4.8-2A7.68,7.68,0,0,1,492.28,87Zm-1.84,10a4.9,4.9,0,0,0,0-6.16,4,4,0,0,0-5.59,0,4.9,4.9,0,0,0,0,6.16,4,4,0,0,0,5.59,0Z"></path><path class="cls-2" d="M516.7,95.1H505.15a3.61,3.61,0,0,0,1.48,2.24,4.88,4.88,0,0,0,2.89.82,6,6,0,0,0,2.12-.35,5.25,5.25,0,0,0,1.72-1.12l2.35,2.55a7.91,7.91,0,0,1-6.3,2.47,10,10,0,0,1-4.57-1,7.39,7.39,0,0,1-3.06-2.79,7.73,7.73,0,0,1-1.08-4.06,7.82,7.82,0,0,1,1.06-4A7.54,7.54,0,0,1,504.69,87a9.09,9.09,0,0,1,8.21,0,7.1,7.1,0,0,1,2.85,2.77,8.26,8.26,0,0,1,1,4.18Q516.79,94,516.7,95.1Zm-10.35-4.91a3.6,3.6,0,0,0-1.25,2.32h7.52a3.63,3.63,0,0,0-3.75-3.17A3.79,3.79,0,0,0,506.35,90.19Z"></path><path class="cls-2" d="M537.39,97.14a3.74,3.74,0,0,1-1.56,3.21,7.93,7.93,0,0,1-4.65,1.13H523V86.21h7.81a8.27,8.27,0,0,1,4.48,1,3.27,3.27,0,0,1,1.62,2.91,3.56,3.56,0,0,1-.58,2,3.8,3.8,0,0,1-1.66,1.35A3.55,3.55,0,0,1,537.39,97.14Zm-10.3-4.65h3.35c1.55,0,2.33-.55,2.33-1.65s-.78-1.62-2.33-1.62h-3.35Zm6.16,4.31a1.47,1.47,0,0,0-.57-1.29,3,3,0,0,0-1.79-.41h-3.8v3.37h3.72C532.44,98.47,533.25,97.92,533.25,96.8Z"></path><path class="cls-2" d="M546.35,100.7a7.48,7.48,0,0,1-3-2.79,8.17,8.17,0,0,1,0-8.12,7.58,7.58,0,0,1,3-2.8A9.83,9.83,0,0,1,555,87a7.93,7.93,0,0,1,3,10.92,7.56,7.56,0,0,1-3,2.79,9.74,9.74,0,0,1-8.64,0Zm7.12-3.77a4.9,4.9,0,0,0,0-6.16,3.68,3.68,0,0,0-2.8-1.15,3.73,3.73,0,0,0-2.81,1.15,4.86,4.86,0,0,0,0,6.16,3.77,3.77,0,0,0,2.81,1.15A3.72,3.72,0,0,0,553.47,96.93Z"></path><path class="cls-2" d="M576.65,94.84a3.1,3.1,0,0,1,.76,2.1,3.67,3.67,0,0,1-1,2.54,6.42,6.42,0,0,1-2.72,1.69,12,12,0,0,1-3.92.6,17.31,17.31,0,0,1-3.52-.37,13.59,13.59,0,0,1-3.2-1.11l1.19-3.09a12.21,12.21,0,0,0,5.33,1.16,5.41,5.41,0,0,0,2.46-.47,1.45,1.45,0,0,0,.89-1.32,1.25,1.25,0,0,0-.62-1.12,3.58,3.58,0,0,0-1.82-.38h-3.12V92.32h2.72a3.59,3.59,0,0,0,1.79-.37,1.19,1.19,0,0,0,.63-1.08,1.25,1.25,0,0,0-.78-1.14,5.13,5.13,0,0,0-2.23-.39,13,13,0,0,0-4.83,1l-1.07-3.07a15.29,15.29,0,0,1,6.18-1.39,12.46,12.46,0,0,1,3.71.51A5.93,5.93,0,0,1,576,87.93a3.24,3.24,0,0,1,.29,4.23,4.48,4.48,0,0,1-1.79,1.38A4.35,4.35,0,0,1,576.65,94.84Z"></path><path class="cls-2" d="M590.18,95.69h-2.3v5.79h-4.43V86.21h4.43v5.94h2.38l4.15-5.94h4.71l-5.34,7.33,5.7,7.94h-5.22Z"></path><path class="cls-2" d="M604.51,86.21h4.4V95.3l7.43-9.09h4.06v15.27H616V92.4l-7.41,9.08h-4.08Z"></path><path class="cls-2" d="M188,8.35H163.66V57.42H152V8.35h-24.4V.4H188Z"></path><path class="cls-2" d="M220.09,58.22a26,26,0,0,1-11.43-2.39,21.42,21.42,0,0,1-7.82-6.12V74.52H189.51V15.74h10v7.55a21.86,21.86,0,0,1,8-6,26.47,26.47,0,0,1,11-2.23,29.21,29.21,0,0,1,10.19,1.71,24.93,24.93,0,0,1,8,4.73,22.53,22.53,0,0,1,5.31,6.88,18.24,18.24,0,0,1,1.9,8.16,20.53,20.53,0,0,1-3,10.94,21.37,21.37,0,0,1-8.44,7.84A26.09,26.09,0,0,1,220.09,58.22Zm-3.7-7.55A17.62,17.62,0,0,0,223,49.49a15.66,15.66,0,0,0,5-3.17,14.37,14.37,0,0,0,3.19-4.48,12.48,12.48,0,0,0,1.14-5.26,12.09,12.09,0,0,0-1.24-5.42,13.28,13.28,0,0,0-3.55-4.4,18.17,18.17,0,0,0-5.36-3,18.87,18.87,0,0,0-6.54-1.11,17.42,17.42,0,0,0-4.58.63A23.7,23.7,0,0,0,206.6,25a15.76,15.76,0,0,0-3.7,2.57,7.12,7.12,0,0,0-2.06,3.27V41.67a16.86,16.86,0,0,0,3.81,4.54,19.34,19.34,0,0,0,5.45,3.24A17.08,17.08,0,0,0,216.39,50.67Z"></path><path class="cls-2" d="M250.26,45.25a9.61,9.61,0,0,1,2.94-7,19.2,19.2,0,0,1,8.13-4.62A40,40,0,0,1,273.22,32a62.58,62.58,0,0,1,7.31.44,47.48,47.48,0,0,1,6.7,1.25V31.09a7.94,7.94,0,0,0-3.4-6.8q-3.4-2.45-9.78-2.45a29.4,29.4,0,0,0-8.55,1.21A47.47,47.47,0,0,0,257,26.66l-3.7-6a48.34,48.34,0,0,1,10.6-4.14,46,46,0,0,1,11.43-1.4q10.82,0,17,4.4T298.45,32V47.49a2.76,2.76,0,0,0,.72,2.15,3.85,3.85,0,0,0,2.37.71v7.07c-1,.16-1.94.27-2.73.32s-1.46.11-2,.16a9.62,9.62,0,0,1-5.56-1.45,5,5,0,0,1-2.16-3.21l-.31-2.41a22.16,22.16,0,0,1-8.91,5.46,33.16,33.16,0,0,1-11.06,1.93,25.33,25.33,0,0,1-9.58-1.71,15.88,15.88,0,0,1-6.59-4.65A10.29,10.29,0,0,1,250.26,45.25Zm34.29,2.6a18.64,18.64,0,0,0,1.9-2.14,3.2,3.2,0,0,0,.78-1.89V39.16a39.65,39.65,0,0,0-6.08-1.3,45.84,45.84,0,0,0-6.18-.44,23.07,23.07,0,0,0-10.14,1.9Q261,41.21,261,44.53A5.44,5.44,0,0,0,262.26,48a9.51,9.51,0,0,0,3.7,2.68,14.71,14.71,0,0,0,5.92,1.07,22.5,22.5,0,0,0,7.21-1.15A18.76,18.76,0,0,0,284.55,47.85Z"></path><path class="cls-2" d="M312.25,57.42V15.74h11.22V32.28H348.6V15.74H360V57.42H348.6V39.91H323.47V57.42Z"></path><path class="cls-2" d="M373.62,57.42V15.74h11.22V32.2h5.35l15.86-16.46h12.56L399,35.9l21.83,21.52h-13L390.09,40.15h-5.25V57.42Z"></path><path class="cls-2" d="M451,58.22a35.48,35.48,0,0,1-11.43-1.71,27.14,27.14,0,0,1-8.7-4.73,21.65,21.65,0,0,1-5.62-6.89,17.83,17.83,0,0,1-1.95-8.15,18.22,18.22,0,0,1,1.95-8.32,21.72,21.72,0,0,1,5.62-6.88,27.09,27.09,0,0,1,8.75-4.73A35.64,35.64,0,0,1,451,15.1a35.12,35.12,0,0,1,11.38,1.71,28.25,28.25,0,0,1,8.7,4.73,21.47,21.47,0,0,1,5.66,6.88,18.23,18.23,0,0,1,2,8.32,17.84,17.84,0,0,1-2,8.15,21.75,21.75,0,0,1-5.61,6.89,27.3,27.3,0,0,1-8.75,4.73A35.69,35.69,0,0,1,451,58.22ZM434.88,36.66a12.41,12.41,0,0,0,2.17,7.2,15,15,0,0,0,5.76,5,17.47,17.47,0,0,0,8,1.82,17.94,17.94,0,0,0,8.24-1.82,14.77,14.77,0,0,0,5.77-5.07,12.9,12.9,0,0,0,0-14.29,14.84,14.84,0,0,0-5.82-5A17.8,17.8,0,0,0,451,22.65a17.15,17.15,0,0,0-8.14,1.9,15.64,15.64,0,0,0-5.76,5.06A12.16,12.16,0,0,0,434.88,36.66Z"></path><path class="cls-2" d="M488.74,57.42V15.74h11.73L519,41.48l18.53-25.74h11.64V57.42H538.47V28l-16,22H515.4l-16-21.92V57.42Z"></path><path class="cls-2" d="M558.86,28.43a23.76,23.76,0,0,1,2.37-10.24A28.82,28.82,0,0,1,568.18,9,34.39,34.39,0,0,1,579.3,2.45,42.29,42.29,0,0,1,594.18,0a38.73,38.73,0,0,1,17.14,3.49,25.6,25.6,0,0,1,10.66,9l-9.06,4.73a15.41,15.41,0,0,0-5.1-5.46A21.13,21.13,0,0,0,601,8.91a34.31,34.31,0,0,0-7.21-.8,25.61,25.61,0,0,0-10,1.81,21.75,21.75,0,0,0-7.26,4.78,19.47,19.47,0,0,0-4.38,6.66,20.22,20.22,0,0,0-1.44,7.39,19.22,19.22,0,0,0,1.7,8,20.54,20.54,0,0,0,4.84,6.7A23,23,0,0,0,584.65,48a25.34,25.34,0,0,0,9.42,1.69,29.9,29.9,0,0,0,7.42-1,23.34,23.34,0,0,0,7-3.05,15.38,15.38,0,0,0,5.1-5.3l9.57,4.18a18.36,18.36,0,0,1-7,7.23,38,38,0,0,1-10.76,4.49,47.57,47.57,0,0,1-11.84,1.53,37.34,37.34,0,0,1-13.9-2.53,36.23,36.23,0,0,1-11.07-6.75,31.28,31.28,0,0,1-7.26-9.47A24.06,24.06,0,0,1,558.86,28.43Z"></path></g></g></svg> 